<svg xmlns="http://www.w3.org/2000/svg" xmlns:xlink="http://www.w3.org/1999/xlink" contentStyleType="text/css" data-diagram-type="ACTIVITY" height="1724px" preserveAspectRatio="none" style="width:1392px;height:1724px;background:#FFFFFF;" version="1.1" viewBox="0 0 1392 1724" width="1392px" zoomAndPan="magnify"><title>Activity Diagram &#8212; Login &amp; Lupa Kata Sandi</title><defs/><g><g class="title" data-source-line="3"><text fill="#000000" font-family="DejaVu Sans" font-size="14" font-weight="bold" lengthAdjust="spacing" textLength="349.959" x="519.561" y="32.9951">Activity Diagram &#8212; Login &amp; Lupa Kata Sandi</text></g><rect fill="#F3E3F3" height="15.1328" style="stroke:#F3E3F3;stroke-width:1;" width="1359.0811" x="15" y="48.8628"/><ellipse cx="383.0399" cy="78.9956" fill="#222222" rx="10" ry="10" style="stroke:#222222;stroke-width:1;"/><rect fill="#FDF8FD" height="35.1328" rx="5" ry="5" style="stroke:#A64CA6;stroke-width:0.5;" width="184.8296" x="290.6251" y="108.9956"/><text fill="#000000" font-family="DejaVu Sans" font-size="13" lengthAdjust="spacing" textLength="164.8296" x="300.6251" y="131.0625">Membuka halaman /login</text><rect fill="#FDF8FD" height="35.1328" rx="5" ry="5" style="stroke:#A64CA6;stroke-width:0.5;" width="195.6206" x="285.2296" y="164.1284"/><text fill="#000000" font-family="DejaVu Sans" font-size="13" lengthAdjust="spacing" textLength="175.6206" x="295.2296" y="186.1953">Mengisi email &amp; kata sandi</text><rect fill="#FDF8FD" height="35.1328" rx="5" ry="5" style="stroke:#A64CA6;stroke-width:0.5;" width="138.7773" x="313.6512" y="390.8433"/><text fill="#000000" font-family="DejaVu Sans" font-size="13" lengthAdjust="spacing" textLength="118.7773" x="323.6512" y="412.9102">Memperbaiki isian</text><rect fill="#FDF8FD" height="35.1328" rx="5" ry="5" style="stroke:#A64CA6;stroke-width:0.5;" width="251.2896" x="257.3951" y="517.5425"/><text fill="#000000" font-family="DejaVu Sans" font-size="13" lengthAdjust="spacing" textLength="231.2896" x="267.3951" y="539.6094">Tolak &amp; catat LOGIN_RATE_LIMITED</text><ellipse cx="383.0399" cy="591.6089" fill="none" rx="11" ry="11" style="stroke:#222222;stroke-width:1;"/><ellipse cx="383.0399" cy="591.6089" fill="#222222" rx="6" ry="6" style="stroke:#222222;stroke-width:1;"/><polygon fill="#FFF6E5" points="274.6282,467.9761,491.4515,467.9761,503.4515,479.9761,491.4515,491.9761,274.6282,491.9761,262.6282,479.9761,274.6282,467.9761" style="stroke:#E9A24B;stroke-width:0.5;"/><text fill="#000000" font-family="DejaVu Sans" font-size="13" lengthAdjust="spacing" textLength="15.6597" x="387.0399" y="504.043">ya</text><text fill="#000000" font-family="DejaVu Sans" font-size="13" lengthAdjust="spacing" textLength="216.8232" x="274.6282" y="484.4766">Terlalu banyak percobaan gagal?</text><text fill="#000000" font-family="DejaVu Sans" font-size="13" lengthAdjust="spacing" textLength="32.4556" x="503.4515" y="476.9102">tidak</text><rect fill="#FDF8FD" height="35.1328" rx="5" ry="5" style="stroke:#A64CA6;stroke-width:0.5;" width="241.3174" x="262.3812" y="644.6089"/><text fill="#000000" font-family="DejaVu Sans" font-size="13" lengthAdjust="spacing" textLength="221.3174" x="272.3812" y="666.6758">Cari pengguna berdasarkan email</text><rect fill="#FDF8FD" height="35.1328" rx="5" ry="5" style="stroke:#A64CA6;stroke-width:0.5;" width="260.2905" x="252.8946" y="699.7417"/><text fill="#000000" font-family="DejaVu Sans" font-size="13" lengthAdjust="spacing" textLength="240.2905" x="262.8946" y="721.8086">Bandingkan hash kata sandi (bcrypt)</text><polygon fill="#FFF6E5" points="318.116,754.8745,447.9637,754.8745,459.9637,766.8745,447.9637,778.8745,318.116,778.8745,306.116,766.8745,318.116,754.8745" style="stroke:#E9A24B;stroke-width:0.5;"/><text fill="#000000" font-family="DejaVu Sans" font-size="13" lengthAdjust="spacing" textLength="129.8477" x="318.116" y="771.375">Cocok &amp; akun aktif?</text><text fill="#000000" font-family="DejaVu Sans" font-size="13" lengthAdjust="spacing" textLength="32.4556" x="273.6605" y="763.8086">tidak</text><text fill="#000000" font-family="DejaVu Sans" font-size="13" lengthAdjust="spacing" textLength="15.6597" x="459.9637" y="763.8086">ya</text><rect fill="#FDF8FD" height="50.2656" rx="5" ry="5" style="stroke:#A64CA6;stroke-width:0.5;" width="186.6514" x="66.7285" y="788.8745"/><text fill="#000000" font-family="DejaVu Sans" font-size="13" lengthAdjust="spacing" textLength="132.6152" x="76.7285" y="810.9414">Catat LOGIN_FAILED</text><text fill="#000000" font-family="DejaVu Sans" font-size="13" lengthAdjust="spacing" textLength="166.6514" x="76.7285" y="826.0742">&amp; tambah hitungan gagal</text><rect fill="#FDF8FD" height="35.1328" rx="5" ry="5" style="stroke:#A64CA6;stroke-width:0.5;" width="278.1084" x="21" y="874.1401"/><text fill="#000000" font-family="DejaVu Sans" font-size="13" lengthAdjust="spacing" textLength="258.1084" x="31" y="896.207">Tampilkan "Email atau password salah"</text><ellipse cx="160.0542" cy="955.2729" fill="none" rx="11" ry="11" style="stroke:#222222;stroke-width:1;"/><ellipse cx="160.0542" cy="955.2729" fill="#222222" rx="6" ry="6" style="stroke:#222222;stroke-width:1;"/><rect fill="#FDF8FD" height="35.1328" rx="5" ry="5" style="stroke:#A64CA6;stroke-width:0.5;" width="292.2129" x="459.9191" y="788.8745"/><text fill="#000000" font-family="DejaVu Sans" font-size="13" lengthAdjust="spacing" textLength="272.2129" x="469.9191" y="810.9414">Buat cookie sesi bertanda tangan (HMAC)</text><rect fill="#FDF8FD" height="35.1328" rx="5" ry="5" style="stroke:#A64CA6;stroke-width:0.5;" width="343.5845" x="434.2333" y="859.0073"/><text fill="#000000" font-family="DejaVu Sans" font-size="13" lengthAdjust="spacing" textLength="323.5845" x="444.2333" y="881.0742">Perbarui terakhir_masuk &amp; catat LOGIN_SUCCESS</text><polygon fill="#FFF6E5" points="583.8817,929.1401,628.1693,929.1401,640.1693,941.1401,628.1693,953.1401,583.8817,953.1401,571.8817,941.1401,583.8817,929.1401" style="stroke:#E9A24B;stroke-width:0.5;"/><text fill="#000000" font-family="DejaVu Sans" font-size="13" lengthAdjust="spacing" textLength="44.2876" x="583.8817" y="945.6406">Peran?</text><rect fill="#FDF8FD" height="35.1328" rx="5" ry="5" style="stroke:#A64CA6;stroke-width:0.5;" width="171.3472" x="319.1084" y="993.4058"/><text fill="#000000" font-family="DejaVu Sans" font-size="13" lengthAdjust="spacing" textLength="151.3472" x="329.1084" y="1015.4727">Arahkan ke /dashboard</text><rect fill="#FDF8FD" height="35.1328" rx="5" ry="5" style="stroke:#A64CA6;stroke-width:0.5;" width="205.8022" x="526.5667" y="993.4058"/><text fill="#000000" font-family="DejaVu Sans" font-size="13" lengthAdjust="spacing" textLength="185.8022" x="536.5667" y="1015.4727">Arahkan ke /guru/dashboard</text><rect fill="#FDF8FD" height="35.1328" rx="5" ry="5" style="stroke:#A64CA6;stroke-width:0.5;" width="140.5737" x="752.3689" y="993.4058"/><text fill="#000000" font-family="DejaVu Sans" font-size="13" lengthAdjust="spacing" textLength="120.5737" x="762.3689" y="1015.4727">Arahkan ke /portal</text><polygon fill="#FFF6E5" points="606.0255,1048.5386,606.0255,1048.5386,618.0255,1060.5386,606.0255,1072.5386,606.0255,1072.5386,594.0255,1060.5386,606.0255,1048.5386" style="stroke:#E9A24B;stroke-width:0.5;"/><rect fill="#FDF8FD" height="35.1328" rx="5" ry="5" style="stroke:#A64CA6;stroke-width:0.5;" width="228.2983" x="268.8907" y="1092.5386"/><text fill="#000000" font-family="DejaVu Sans" font-size="13" lengthAdjust="spacing" textLength="208.2983" x="278.8907" y="1114.6055">Melihat dashboard sesuai peran</text><ellipse cx="383.0399" cy="1158.6714" fill="none" rx="11" ry="11" style="stroke:#222222;stroke-width:1;"/><ellipse cx="383.0399" cy="1158.6714" fill="#222222" rx="6" ry="6" style="stroke:#222222;stroke-width:1;"/><ellipse cx="383.0399" cy="1189.6714" fill="#222222" rx="10" ry="10" style="stroke:#222222;stroke-width:1;"/><rect fill="#FDF8FD" height="35.1328" rx="5" ry="5" style="stroke:#A64CA6;stroke-width:0.5;" width="184.8232" x="290.6282" y="1219.6714"/><text fill="#000000" font-family="DejaVu Sans" font-size="13" lengthAdjust="spacing" textLength="164.8232" x="300.6282" y="1241.7383">Memilih "Lupa password"</text><rect fill="#FDF8FD" height="35.1328" rx="5" ry="5" style="stroke:#A64CA6;stroke-width:0.5;" width="109.686" x="328.1968" y="1274.8042"/><text fill="#000000" font-family="DejaVu Sans" font-size="13" lengthAdjust="spacing" textLength="89.686" x="338.1968" y="1296.8711">Mengisi email</text><rect fill="#FDF8FD" height="35.1328" rx="5" ry="5" style="stroke:#A64CA6;stroke-width:0.5;" width="305.7524" x="230.1636" y="1455.3354"/><text fill="#000000" font-family="DejaVu Sans" font-size="13" lengthAdjust="spacing" textLength="285.7524" x="240.1636" y="1477.4023">Membuka tautan &amp; mengisi kata sandi baru</text><line style="stroke:#A64CA6;stroke-width:1.5;" x1="15" x2="15" y1="48.8628" y2="1712.9995"/><rect fill="#FDF8FD" height="35.1328" rx="5" ry="5" style="stroke:#A64CA6;stroke-width:0.5;" width="152.7549" x="1053.0505" y="219.2612"/><text fill="#000000" font-family="DejaVu Sans" font-size="13" lengthAdjust="spacing" textLength="132.7549" x="1063.0505" y="241.3281">Validasi format isian</text><rect fill="#FDF8FD" height="35.1328" rx="5" ry="5" style="stroke:#A64CA6;stroke-width:0.5;" width="201.562" x="1028.647" y="323.9604"/><text fill="#000000" font-family="DejaVu Sans" font-size="13" lengthAdjust="spacing" textLength="181.562" x="1038.647" y="346.0273">Tampilkan pesan kesalahan</text><polygon fill="#FFF6E5" points="1085.0928,274.394,1173.7632,274.394,1185.7632,286.394,1173.7632,298.394,1085.0928,298.394,1073.0928,286.394,1085.0928,274.394" style="stroke:#E9A24B;stroke-width:0.5;"/><text fill="#000000" font-family="DejaVu Sans" font-size="13" lengthAdjust="spacing" textLength="32.4556" x="1133.428" y="310.4609">tidak</text><text fill="#000000" font-family="DejaVu Sans" font-size="13" lengthAdjust="spacing" textLength="88.6704" x="1085.0928" y="290.8945">Format valid?</text><text fill="#000000" font-family="DejaVu Sans" font-size="13" lengthAdjust="spacing" textLength="15.6597" x="1185.7632" y="283.3281">ya</text><rect fill="#FDF8FD" height="50.2656" rx="5" ry="5" style="stroke:#A64CA6;stroke-width:0.5;" width="255.7583" x="1001.5488" y="1329.937"/><text fill="#000000" font-family="DejaVu Sans" font-size="13" lengthAdjust="spacing" textLength="235.7583" x="1011.5488" y="1352.0039">Buat token acak &amp; simpan hash-nya</text><text fill="#000000" font-family="DejaVu Sans" font-size="13" lengthAdjust="spacing" textLength="117.7109" x="1011.5488" y="1367.1367">(berlaku terbatas)</text><rect fill="#FDF8FD" height="35.1328" rx="5" ry="5" style="stroke:#A64CA6;stroke-width:0.5;" width="207.1543" x="1025.8508" y="1400.2026"/><text fill="#000000" font-family="DejaVu Sans" font-size="13" lengthAdjust="spacing" textLength="187.1543" x="1035.8508" y="1422.2695">Kirim/tampilkan tautan reset</text><polygon fill="#FFF6E5" points="1039.7229,1510.4683,1219.1331,1510.4683,1231.1331,1525.6011,1219.1331,1540.7339,1039.7229,1540.7339,1027.7229,1525.6011,1039.7229,1510.4683" style="stroke:#E9A24B;stroke-width:0.5;"/><text fill="#000000" font-family="DejaVu Sans" font-size="13" lengthAdjust="spacing" textLength="179.4102" x="1039.7229" y="1522.5352">Token valid, belum dipakai,</text><text fill="#000000" font-family="DejaVu Sans" font-size="13" lengthAdjust="spacing" textLength="134.0752" x="1039.7229" y="1537.668">belum kedaluwarsa?</text><text fill="#000000" font-family="DejaVu Sans" font-size="13" lengthAdjust="spacing" textLength="15.6597" x="1012.0632" y="1522.5352">ya</text><text fill="#000000" font-family="DejaVu Sans" font-size="13" lengthAdjust="spacing" textLength="32.4556" x="1231.1331" y="1522.5352">tidak</text><rect fill="#FDF8FD" height="35.1328" rx="5" ry="5" style="stroke:#A64CA6;stroke-width:0.5;" width="209.9346" x="902.9426" y="1550.7339"/><text fill="#000000" font-family="DejaVu Sans" font-size="13" lengthAdjust="spacing" textLength="189.9346" x="912.9426" y="1572.8008">Simpan hash kata sandi baru</text><rect fill="#FDF8FD" height="35.1328" rx="5" ry="5" style="stroke:#A64CA6;stroke-width:0.5;" width="156.2461" x="929.7869" y="1605.8667"/><text fill="#000000" font-family="DejaVu Sans" font-size="13" lengthAdjust="spacing" textLength="136.2461" x="939.7869" y="1627.9336">Tandai token dipakai</text><rect fill="#FDF8FD" height="35.1328" rx="5" ry="5" style="stroke:#A64CA6;stroke-width:0.5;" width="236.1377" x="1132.8772" y="1550.7339"/><text fill="#000000" font-family="DejaVu Sans" font-size="13" lengthAdjust="spacing" textLength="216.1377" x="1142.8772" y="1572.8008">Tampilkan "tautan tidak berlaku"</text><polygon fill="#FFF6E5" points="1129.428,1646.9995,1141.428,1658.9995,1129.428,1670.9995,1117.428,1658.9995,1129.428,1646.9995" style="stroke:#E9A24B;stroke-width:0.5;"/><ellipse cx="1129.428" cy="1701.9995" fill="none" rx="11" ry="11" style="stroke:#222222;stroke-width:1;"/><ellipse cx="1129.428" cy="1701.9995" fill="#222222" rx="6" ry="6" style="stroke:#222222;stroke-width:1;"/><line style="stroke:#A64CA6;stroke-width:1.5;" x1="896.9426" x2="896.9426" y1="48.8628" y2="1712.9995"/><line style="stroke:#A64CA6;stroke-width:1.5;" x1="1373.0149" x2="1373.0149" y1="48.8628" y2="1712.9995"/><line style="stroke:#7A3F86;stroke-width:1;" x1="383.0399" x2="383.0399" y1="88.9956" y2="108.9956"/><polygon fill="#7A3F86" points="379.0399,98.9956,383.0399,108.9956,387.0399,98.9956,383.0399,102.9956" style="stroke:#7A3F86;stroke-width:1;"/><line style="stroke:#7A3F86;stroke-width:1;" x1="383.0399" x2="383.0399" y1="144.1284" y2="164.1284"/><polygon fill="#7A3F86" points="379.0399,154.1284,383.0399,164.1284,387.0399,154.1284,383.0399,158.1284" style="stroke:#7A3F86;stroke-width:1;"/><line style="stroke:#7A3F86;stroke-width:1;" x1="383.0399" x2="383.0399" y1="552.6753" y2="580.6089"/><polygon fill="#7A3F86" points="379.0399,570.6089,383.0399,580.6089,387.0399,570.6089,383.0399,574.6089" style="stroke:#7A3F86;stroke-width:1;"/><line style="stroke:#7A3F86;stroke-width:1;" x1="383.0399" x2="383.0399" y1="491.9761" y2="517.5425"/><polygon fill="#7A3F86" points="379.0399,507.5425,383.0399,517.5425,387.0399,507.5425,383.0399,511.5425" style="stroke:#7A3F86;stroke-width:1;"/><line style="stroke:#7A3F86;stroke-width:1;" x1="503.4515" x2="518.6846" y1="479.9761" y2="479.9761"/><polygon fill="#7A3F86" points="514.6846,550.6089,518.6846,560.6089,522.6846,550.6089,518.6846,554.6089" style="stroke:#7A3F86;stroke-width:1;"/><line style="stroke:#7A3F86;stroke-width:1;" x1="518.6846" x2="518.6846" y1="479.9761" y2="624.6089"/><line style="stroke:#7A3F86;stroke-width:1;" x1="518.6846" x2="383.0399" y1="624.6089" y2="624.6089"/><line style="stroke:#7A3F86;stroke-width:1;" x1="383.0399" x2="383.0399" y1="624.6089" y2="644.6089"/><polygon fill="#7A3F86" points="379.0399,634.6089,383.0399,644.6089,387.0399,634.6089,383.0399,638.6089" style="stroke:#7A3F86;stroke-width:1;"/><line style="stroke:#7A3F86;stroke-width:1;" x1="383.0399" x2="383.0399" y1="679.7417" y2="699.7417"/><polygon fill="#7A3F86" points="379.0399,689.7417,383.0399,699.7417,387.0399,689.7417,383.0399,693.7417" style="stroke:#7A3F86;stroke-width:1;"/><line style="stroke:#7A3F86;stroke-width:1;" x1="160.0542" x2="160.0542" y1="839.1401" y2="874.1401"/><polygon fill="#7A3F86" points="156.0542,864.1401,160.0542,874.1401,164.0542,864.1401,160.0542,868.1401" style="stroke:#7A3F86;stroke-width:1;"/><line style="stroke:#7A3F86;stroke-width:1;" x1="160.0542" x2="160.0542" y1="909.2729" y2="944.2729"/><polygon fill="#7A3F86" points="156.0542,934.2729,160.0542,944.2729,164.0542,934.2729,160.0542,938.2729" style="stroke:#7A3F86;stroke-width:1;"/><line style="stroke:#7A3F86;stroke-width:1;" x1="606.0255" x2="606.0255" y1="824.0073" y2="859.0073"/><polygon fill="#7A3F86" points="602.0255,849.0073,606.0255,859.0073,610.0255,849.0073,606.0255,853.0073" style="stroke:#7A3F86;stroke-width:1;"/><line style="stroke:#7A3F86;stroke-width:1;" x1="571.8817" x2="404.782" y1="941.1401" y2="941.1401"/><line style="stroke:#7A3F86;stroke-width:1;" x1="404.782" x2="404.782" y1="941.1401" y2="993.4058"/><polygon fill="#7A3F86" points="400.782,983.4058,404.782,993.4058,408.782,983.4058,404.782,987.4058" style="stroke:#7A3F86;stroke-width:1;"/><text fill="#000000" font-family="DejaVu Sans" font-size="13" lengthAdjust="spacing" textLength="101.7847" x="404.782" y="971.7734">Admin / Staf TU</text><line style="stroke:#7A3F86;stroke-width:1;" x1="640.1693" x2="822.6558" y1="941.1401" y2="941.1401"/><line style="stroke:#7A3F86;stroke-width:1;" x1="822.6558" x2="822.6558" y1="941.1401" y2="993.4058"/><polygon fill="#7A3F86" points="818.6558,983.4058,822.6558,993.4058,826.6558,983.4058,822.6558,987.4058" style="stroke:#7A3F86;stroke-width:1;"/><text fill="#000000" font-family="DejaVu Sans" font-size="13" lengthAdjust="spacing" textLength="65.4697" x="822.6558" y="971.7734">Orang tua</text><line style="stroke:#7A3F86;stroke-width:1;" x1="606.0255" x2="606.0255" y1="953.1401" y2="966.562"/><line style="stroke:#7A3F86;stroke-width:1;" x1="606.0255" x2="629.4678" y1="966.562" y2="966.562"/><line style="stroke:#7A3F86;stroke-width:1;" x1="629.4678" x2="629.4678" y1="966.562" y2="993.4058"/><polygon fill="#7A3F86" points="625.4678,983.4058,629.4678,993.4058,633.4678,983.4058,629.4678,987.4058" style="stroke:#7A3F86;stroke-width:1;"/><text fill="#000000" font-family="DejaVu Sans" font-size="13" lengthAdjust="spacing" textLength="31.897" x="606.0255" y="972.7734">Guru</text><line style="stroke:#7A3F86;stroke-width:1;" x1="404.782" x2="404.782" y1="1028.5386" y2="1060.5386"/><line style="stroke:#7A3F86;stroke-width:1;" x1="404.782" x2="594.0255" y1="1060.5386" y2="1060.5386"/><polygon fill="#7A3F86" points="584.0255,1056.5386,594.0255,1060.5386,584.0255,1064.5386,588.0255,1060.5386" style="stroke:#7A3F86;stroke-width:1;"/><line style="stroke:#7A3F86;stroke-width:1;" x1="822.6558" x2="822.6558" y1="1028.5386" y2="1060.5386"/><line style="stroke:#7A3F86;stroke-width:1;" x1="822.6558" x2="618.0255" y1="1060.5386" y2="1060.5386"/><polygon fill="#7A3F86" points="628.0255,1056.5386,618.0255,1060.5386,628.0255,1064.5386,624.0255,1060.5386" style="stroke:#7A3F86;stroke-width:1;"/><line style="stroke:#7A3F86;stroke-width:1;" x1="629.4678" x2="629.4678" y1="1028.5386" y2="1033.5386"/><line style="stroke:#7A3F86;stroke-width:1;" x1="629.4678" x2="606.0255" y1="1033.5386" y2="1033.5386"/><line style="stroke:#7A3F86;stroke-width:1;" x1="606.0255" x2="606.0255" y1="1033.5386" y2="1048.5386"/><polygon fill="#7A3F86" points="602.0255,1038.5386,606.0255,1048.5386,610.0255,1038.5386,606.0255,1042.5386" style="stroke:#7A3F86;stroke-width:1;"/><line style="stroke:#7A3F86;stroke-width:1;" x1="606.0255" x2="606.0255" y1="894.1401" y2="929.1401"/><polygon fill="#7A3F86" points="602.0255,919.1401,606.0255,929.1401,610.0255,919.1401,606.0255,923.1401" style="stroke:#7A3F86;stroke-width:1;"/><line style="stroke:#7A3F86;stroke-width:1;" x1="306.116" x2="160.0542" y1="766.8745" y2="766.8745"/><line style="stroke:#7A3F86;stroke-width:1;" x1="160.0542" x2="160.0542" y1="766.8745" y2="788.8745"/><polygon fill="#7A3F86" points="156.0542,778.8745,160.0542,788.8745,164.0542,778.8745,160.0542,782.8745" style="stroke:#7A3F86;stroke-width:1;"/><line style="stroke:#7A3F86;stroke-width:1;" x1="459.9637" x2="606.0255" y1="766.8745" y2="766.8745"/><line style="stroke:#7A3F86;stroke-width:1;" x1="606.0255" x2="606.0255" y1="766.8745" y2="788.8745"/><polygon fill="#7A3F86" points="602.0255,778.8745,606.0255,788.8745,610.0255,778.8745,606.0255,782.8745" style="stroke:#7A3F86;stroke-width:1;"/><line style="stroke:#7A3F86;stroke-width:1;" x1="606.0255" x2="606.0255" y1="1072.5386" y2="1077.5386"/><line style="stroke:#7A3F86;stroke-width:1;" x1="606.0255" x2="383.0399" y1="1077.5386" y2="1077.5386"/><line style="stroke:#7A3F86;stroke-width:1;" x1="383.0399" x2="383.0399" y1="1077.5386" y2="1092.5386"/><polygon fill="#7A3F86" points="379.0399,1082.5386,383.0399,1092.5386,387.0399,1082.5386,383.0399,1086.5386" style="stroke:#7A3F86;stroke-width:1;"/><line style="stroke:#7A3F86;stroke-width:1;" x1="383.0399" x2="383.0399" y1="734.8745" y2="754.8745"/><polygon fill="#7A3F86" points="379.0399,744.8745,383.0399,754.8745,387.0399,744.8745,383.0399,748.8745" style="stroke:#7A3F86;stroke-width:1;"/><line style="stroke:#7A3F86;stroke-width:1;" x1="383.0399" x2="383.0399" y1="1127.6714" y2="1147.6714"/><polygon fill="#7A3F86" points="379.0399,1137.6714,383.0399,1147.6714,387.0399,1137.6714,383.0399,1141.6714" style="stroke:#7A3F86;stroke-width:1;"/><line style="stroke:#7A3F86;stroke-width:1;" x1="383.0399" x2="383.0399" y1="1199.6714" y2="1219.6714"/><polygon fill="#7A3F86" points="379.0399,1209.6714,383.0399,1219.6714,387.0399,1209.6714,383.0399,1213.6714" style="stroke:#7A3F86;stroke-width:1;"/><line style="stroke:#7A3F86;stroke-width:1;" x1="383.0399" x2="383.0399" y1="1254.8042" y2="1274.8042"/><polygon fill="#7A3F86" points="379.0399,1264.8042,383.0399,1274.8042,387.0399,1264.8042,383.0399,1268.8042" style="stroke:#7A3F86;stroke-width:1;"/><line style="stroke:#7A3F86;stroke-width:1;" x1="1129.428" x2="1129.428" y1="298.394" y2="323.9604"/><polygon fill="#7A3F86" points="1125.428,313.9604,1129.428,323.9604,1133.428,313.9604,1129.428,317.9604" style="stroke:#7A3F86;stroke-width:1;"/><line style="stroke:#7A3F86;stroke-width:1;" x1="1185.7632" x2="1240.209" y1="286.394" y2="286.394"/><polygon fill="#7A3F86" points="1236.209,369.0933,1240.209,379.0933,1244.209,369.0933,1240.209,373.0933" style="stroke:#7A3F86;stroke-width:1;"/><line style="stroke:#7A3F86;stroke-width:1;" x1="1240.209" x2="1240.209" y1="286.394" y2="452.9761"/><line style="stroke:#7A3F86;stroke-width:1;" x1="1240.209" x2="383.0399" y1="452.9761" y2="452.9761"/><line style="stroke:#7A3F86;stroke-width:1;" x1="383.0399" x2="383.0399" y1="452.9761" y2="467.9761"/><polygon fill="#7A3F86" points="379.0399,457.9761,383.0399,467.9761,387.0399,457.9761,383.0399,461.9761" style="stroke:#7A3F86;stroke-width:1;"/><line style="stroke:#7A3F86;stroke-width:1;" x1="1129.428" x2="1129.428" y1="254.394" y2="274.394"/><polygon fill="#7A3F86" points="1125.428,264.394,1129.428,274.394,1133.428,264.394,1129.428,268.394" style="stroke:#7A3F86;stroke-width:1;"/><line style="stroke:#7A3F86;stroke-width:1;" x1="1129.428" x2="1129.428" y1="1380.2026" y2="1400.2026"/><polygon fill="#7A3F86" points="1125.428,1390.2026,1129.428,1400.2026,1133.428,1390.2026,1129.428,1394.2026" style="stroke:#7A3F86;stroke-width:1;"/><line style="stroke:#7A3F86;stroke-width:1;" x1="1007.9099" x2="1007.9099" y1="1585.8667" y2="1605.8667"/><polygon fill="#7A3F86" points="1003.9099,1595.8667,1007.9099,1605.8667,1011.9099,1595.8667,1007.9099,1599.8667" style="stroke:#7A3F86;stroke-width:1;"/><line style="stroke:#7A3F86;stroke-width:1;" x1="1027.7229" x2="1007.9099" y1="1525.6011" y2="1525.6011"/><line style="stroke:#7A3F86;stroke-width:1;" x1="1007.9099" x2="1007.9099" y1="1525.6011" y2="1550.7339"/><polygon fill="#7A3F86" points="1003.9099,1540.7339,1007.9099,1550.7339,1011.9099,1540.7339,1007.9099,1544.7339" style="stroke:#7A3F86;stroke-width:1;"/><line style="stroke:#7A3F86;stroke-width:1;" x1="1231.1331" x2="1250.946" y1="1525.6011" y2="1525.6011"/><line style="stroke:#7A3F86;stroke-width:1;" x1="1250.946" x2="1250.946" y1="1525.6011" y2="1550.7339"/><polygon fill="#7A3F86" points="1246.946,1540.7339,1250.946,1550.7339,1254.946,1540.7339,1250.946,1544.7339" style="stroke:#7A3F86;stroke-width:1;"/><line style="stroke:#7A3F86;stroke-width:1;" x1="1007.9099" x2="1007.9099" y1="1640.9995" y2="1658.9995"/><line style="stroke:#7A3F86;stroke-width:1;" x1="1007.9099" x2="1117.428" y1="1658.9995" y2="1658.9995"/><polygon fill="#7A3F86" points="1107.428,1654.9995,1117.428,1658.9995,1107.428,1662.9995,1111.428,1658.9995" style="stroke:#7A3F86;stroke-width:1;"/><line style="stroke:#7A3F86;stroke-width:1;" x1="1250.946" x2="1250.946" y1="1585.8667" y2="1658.9995"/><line style="stroke:#7A3F86;stroke-width:1;" x1="1250.946" x2="1141.428" y1="1658.9995" y2="1658.9995"/><polygon fill="#7A3F86" points="1151.428,1654.9995,1141.428,1658.9995,1151.428,1662.9995,1147.428,1658.9995" style="stroke:#7A3F86;stroke-width:1;"/><line style="stroke:#7A3F86;stroke-width:1;" x1="1129.428" x2="1129.428" y1="1670.9995" y2="1690.9995"/><polygon fill="#7A3F86" points="1125.428,1680.9995,1129.428,1690.9995,1133.428,1680.9995,1129.428,1684.9995" style="stroke:#7A3F86;stroke-width:1;"/><line style="stroke:#7A3F86;stroke-width:1;" x1="383.0399" x2="383.0399" y1="199.2612" y2="204.2612"/><line style="stroke:#7A3F86;stroke-width:1;" x1="383.0399" x2="1129.428" y1="204.2612" y2="204.2612"/><line style="stroke:#7A3F86;stroke-width:1;" x1="1129.428" x2="1129.428" y1="204.2612" y2="219.2612"/><polygon fill="#7A3F86" points="1125.428,209.2612,1129.428,219.2612,1133.428,209.2612,1129.428,213.2612" style="stroke:#7A3F86;stroke-width:1;"/><line style="stroke:#7A3F86;stroke-width:1;" x1="1129.428" x2="1129.428" y1="359.0933" y2="373.3433"/><line style="stroke:#7A3F86;stroke-width:1;" x1="1129.428" x2="383.0399" y1="373.3433" y2="373.3433"/><line style="stroke:#7A3F86;stroke-width:1;" x1="383.0399" x2="383.0399" y1="373.3433" y2="390.8433"/><polygon fill="#7A3F86" points="379.0399,380.8433,383.0399,390.8433,387.0399,380.8433,383.0399,384.8433" style="stroke:#7A3F86;stroke-width:1;"/><line style="stroke:#7A3F86;stroke-width:1;" x1="383.0399" x2="383.0399" y1="1309.937" y2="1314.937"/><line style="stroke:#7A3F86;stroke-width:1;" x1="383.0399" x2="1129.428" y1="1314.937" y2="1314.937"/><line style="stroke:#7A3F86;stroke-width:1;" x1="1129.428" x2="1129.428" y1="1314.937" y2="1329.937"/><polygon fill="#7A3F86" points="1125.428,1319.937,1129.428,1329.937,1133.428,1319.937,1129.428,1323.937" style="stroke:#7A3F86;stroke-width:1;"/><line style="stroke:#7A3F86;stroke-width:1;" x1="1129.428" x2="1129.428" y1="1435.3354" y2="1440.3354"/><line style="stroke:#7A3F86;stroke-width:1;" x1="1129.428" x2="383.0399" y1="1440.3354" y2="1440.3354"/><line style="stroke:#7A3F86;stroke-width:1;" x1="383.0399" x2="383.0399" y1="1440.3354" y2="1455.3354"/><polygon fill="#7A3F86" points="379.0399,1445.3354,383.0399,1455.3354,387.0399,1445.3354,383.0399,1449.3354" style="stroke:#7A3F86;stroke-width:1;"/><line style="stroke:#7A3F86;stroke-width:1;" x1="383.0399" x2="383.0399" y1="1490.4683" y2="1495.4683"/><line style="stroke:#7A3F86;stroke-width:1;" x1="383.0399" x2="1129.428" y1="1495.4683" y2="1495.4683"/><line style="stroke:#7A3F86;stroke-width:1;" x1="1129.428" x2="1129.428" y1="1495.4683" y2="1510.4683"/><polygon fill="#7A3F86" points="1125.428,1500.4683,1129.428,1510.4683,1133.428,1500.4683,1129.428,1504.4683" style="stroke:#7A3F86;stroke-width:1;"/><text fill="#000000" font-family="DejaVu Sans" font-size="13" lengthAdjust="spacing" textLength="65.0254" x="423.4586" y="60.9297">Pengguna</text><text fill="#000000" font-family="DejaVu Sans" font-size="13" lengthAdjust="spacing" textLength="44.3955" x="1112.781" y="60.9297">Sistem</text><!--SRC=[RLHDRzf04BtxLqmv893ISeT3HGX9KKWJrQIdI6XiB_PeFsojTnCXSUYFw2_iB-disg64Sh64FJFlpNjl-4GcLxuGi2rnZr_8QvKuSah0F7VqIcuFDuIbHGr_Vls6TLsIWI6iVODmZmuXHLDGaXoUX2bBR_2Gj0wjIwOFGcTU8bIeKAE1YGgzi_31bDGI28saU9OCOzemPfOSKcgTq8Ta-XCL5SXbkzfgTC0ToDsqWz5jz-OrL7mTWwk4WP7ZQZbE0AORr0qfoP2DuB4W-Qcm2jq09povb3asmcP8aju100hXCAyIeLe1epsE4y7KTX5v8wn2vI53iqV9ysrUPyWO9PQeZbn2Ko1IAouQGiuBEbW_tgs-Rt_CDyljUlMmsYnl0bZhwgQ7wZVeqAOBjCG07Ld8X6Knq8QjecwiutMGp9JXLOLjTQ8ZZBBSxXitxlHQr7aTUA3qXX-ETXTKMvoGl9slrikR5pC4Xph32YfotfJlUyu-gZnOHYEvtqE3RVjMsmAYv8Ep3NjThZqZvNKjIK0hs6BUpZ5lPBY8ClhsC5-C8ynJiCTw0YSioehiLcFhprLDdnUBPPf6k3ToUGKZRaJpDU3b6B3dXURaJY1rk8FDS_Z0u-SMAnap0XCMkCfgjCNis7JdhRzGMVBhI-MF35c2ytYXfwbvnoWT6zoHxAq-YIG7Kb75Qns71u4yXYJOaCuevkLZ8-w4GJpCTnS6vzTsUc3H1LTBZW7cCQSjwQOFqsVEzuiPPI7lqWVnCvQxPK-czsH9JzpHVhQTRGChMk5cPyjq_m1znH1qp-KagS7S4rRno2AdUDrN70tbDHJKe4IwUZ7TRoaAFiCtj2sU7rtwRud_SM9kEMZKBzxFdNsym8_fxjd7Rz0Bmi9stWK__W80]--></g></svg>