<svg xmlns="http://www.w3.org/2000/svg" xmlns:xlink="http://www.w3.org/1999/xlink" contentStyleType="text/css" data-diagram-type="ACTIVITY" height="1196px" preserveAspectRatio="none" style="width:657px;height:1196px;background:#FFFFFF;" version="1.1" viewBox="0 0 657 1196" width="657px" zoomAndPan="magnify"><title>Activity Diagram &#8212; Pengisian Presensi Harian</title><defs/><g><g class="title" data-source-line="3"><text fill="#000000" font-family="DejaVu Sans" font-size="14" font-weight="bold" lengthAdjust="spacing" textLength="362.5234" x="146.0565" y="32.9951">Activity Diagram &#8212; Pengisian Presensi Harian</text></g><rect fill="#F3E3F3" height="15.1328" style="stroke:#F3E3F3;stroke-width:1;" width="624.6365" x="15" y="48.8628"/><ellipse cx="141.3218" cy="78.9956" fill="#222222" rx="10" ry="10" style="stroke:#222222;stroke-width:1;"/><rect fill="#FDF8FD" height="35.1328" rx="5" ry="5" style="stroke:#A64CA6;stroke-width:0.5;" width="183.8457" x="49.3989" y="108.9956"/><text fill="#000000" font-family="DejaVu Sans" font-size="13" lengthAdjust="spacing" textLength="163.8457" x="59.3989" y="131.0625">Membuka menu Presensi</text><rect fill="#FDF8FD" height="35.1328" rx="5" ry="5" style="stroke:#A64CA6;stroke-width:0.5;" width="176.749" x="52.9473" y="164.1284"/><text fill="#000000" font-family="DejaVu Sans" font-size="13" lengthAdjust="spacing" textLength="156.749" x="62.9473" y="186.1953">Memilih kelas &amp; tanggal</text><rect fill="#FDF8FD" height="35.1328" rx="5" ry="5" style="stroke:#A64CA6;stroke-width:0.5;" width="191.6787" x="45.4824" y="520.4253"/><text fill="#000000" font-family="DejaVu Sans" font-size="13" lengthAdjust="spacing" textLength="171.6787" x="55.4824" y="542.4922">Klik "Tandai Hadir Semua"</text><polygon fill="#FFF6E5" points="96.5391,470.8589,186.1045,470.8589,198.1045,482.8589,186.1045,494.8589,96.5391,494.8589,84.5391,482.8589,96.5391,470.8589" style="stroke:#E9A24B;stroke-width:0.5;"/><text fill="#000000" font-family="DejaVu Sans" font-size="13" lengthAdjust="spacing" textLength="15.6597" x="145.3218" y="506.9258">ya</text><text fill="#000000" font-family="DejaVu Sans" font-size="13" lengthAdjust="spacing" textLength="89.5654" x="96.5391" y="487.3594">Semua hadir?</text><text fill="#000000" font-family="DejaVu Sans" font-size="13" lengthAdjust="spacing" textLength="32.4556" x="198.1045" y="479.793">tidak</text><polygon fill="#FFF6E5" points="141.3218,575.5581,153.3218,587.5581,141.3218,599.5581,129.3218,587.5581,141.3218,575.5581" style="stroke:#E9A24B;stroke-width:0.5;"/><rect fill="#FDF8FD" height="50.2656" rx="5" ry="5" style="stroke:#A64CA6;stroke-width:0.5;" width="186.7148" x="47.9644" y="663.5581"/><text fill="#000000" font-family="DejaVu Sans" font-size="13" lengthAdjust="spacing" textLength="110.8809" x="57.9644" y="685.625">Pilih status siswa</text><text fill="#000000" font-family="DejaVu Sans" font-size="13" lengthAdjust="spacing" textLength="166.7148" x="57.9644" y="700.7578">(Hadir / Sakit / Izin / Alpa)</text><rect fill="#FDF8FD" height="35.1328" rx="5" ry="5" style="stroke:#A64CA6;stroke-width:0.5;" width="156.4683" x="63.0876" y="748.8237"/><text fill="#000000" font-family="DejaVu Sans" font-size="13" lengthAdjust="spacing" textLength="136.4683" x="73.0876" y="770.8906">Isi catatan (opsional)</text><polygon fill="#FFF6E5" points="141.3218,619.5581,153.3218,631.5581,141.3218,643.5581,129.3218,631.5581,141.3218,619.5581" style="stroke:#E9A24B;stroke-width:0.5;"/><polygon fill="#FFF6E5" points="42,803.9565,240.6436,803.9565,252.6436,815.9565,240.6436,827.9565,42,827.9565,30,815.9565,42,803.9565" style="stroke:#E9A24B;stroke-width:0.5;"/><text fill="#000000" font-family="DejaVu Sans" font-size="13" lengthAdjust="spacing" textLength="198.6436" x="42" y="820.457">Masih ada siswa tanpa status?</text><text fill="#000000" font-family="DejaVu Sans" font-size="13" lengthAdjust="spacing" textLength="15.6597" x="252.6436" y="812.8906">ya</text><rect fill="#FDF8FD" height="35.1328" rx="5" ry="5" style="stroke:#A64CA6;stroke-width:0.5;" width="167.0625" x="57.7905" y="872.1553"/><text fill="#000000" font-family="DejaVu Sans" font-size="13" lengthAdjust="spacing" textLength="147.0625" x="67.7905" y="894.2222">Klik "Simpan Presensi"</text><ellipse cx="141.3218" cy="1173.9521" fill="none" rx="11" ry="11" style="stroke:#222222;stroke-width:1;"/><ellipse cx="141.3218" cy="1173.9521" fill="#222222" rx="6" ry="6" style="stroke:#222222;stroke-width:1;"/><line style="stroke:#A64CA6;stroke-width:1.5;" x1="15" x2="15" y1="48.8628" y2="1184.9521"/><rect fill="#FDF8FD" height="35.1328" rx="5" ry="5" style="stroke:#A64CA6;stroke-width:0.5;" width="319.9268" x="289.6436" y="275.0933"/><text fill="#000000" font-family="DejaVu Sans" font-size="13" lengthAdjust="spacing" textLength="299.9268" x="299.6436" y="297.1602">Tampilkan "Kelas ini bukan assignment Anda"</text><ellipse cx="449.6069" cy="347.5933" fill="none" rx="11" ry="11" style="stroke:#222222;stroke-width:1;"/><ellipse cx="449.6069" cy="347.5933" fill="#222222" rx="6" ry="6" style="stroke:#222222;stroke-width:1;"/><polygon fill="#FFF6E5" points="336.1616,219.2612,563.0522,219.2612,575.0522,234.394,563.0522,249.5269,336.1616,249.5269,324.1616,234.394,336.1616,219.2612" style="stroke:#E9A24B;stroke-width:0.5;"/><text fill="#000000" font-family="DejaVu Sans" font-size="13" lengthAdjust="spacing" textLength="32.4556" x="453.6069" y="261.5938">tidak</text><text fill="#000000" font-family="DejaVu Sans" font-size="13" lengthAdjust="spacing" textLength="210.9263" x="336.1616" y="231.3281">Pengguna berhak atas kelas ini?</text><text fill="#000000" font-family="DejaVu Sans" font-size="13" lengthAdjust="spacing" textLength="226.8906" x="336.1616" y="246.4609">(guru = hanya kelas yang diampu)</text><rect fill="#FDF8FD" height="50.2656" rx="5" ry="5" style="stroke:#A64CA6;stroke-width:0.5;" width="242.2949" x="328.4595" y="400.5933"/><text fill="#000000" font-family="DejaVu Sans" font-size="13" lengthAdjust="spacing" textLength="153.7529" x="338.4595" y="422.6602">Muat daftar siswa kelas</text><text fill="#000000" font-family="DejaVu Sans" font-size="13" lengthAdjust="spacing" textLength="222.2949" x="338.4595" y="437.793">+ status presensi yang sudah ada</text><rect fill="#FDF8FD" height="35.1328" rx="5" ry="5" style="stroke:#A64CA6;stroke-width:0.5;" width="272.002" x="313.606" y="927.2881"/><text fill="#000000" font-family="DejaVu Sans" font-size="13" lengthAdjust="spacing" textLength="252.002" x="323.606" y="949.355">Validasi: semua siswa sudah berstatus</text><rect fill="#FDF8FD" height="50.2656" rx="5" ry="5" style="stroke:#A64CA6;stroke-width:0.5;" width="193.9893" x="352.6123" y="982.4209"/><text fill="#000000" font-family="DejaVu Sans" font-size="13" lengthAdjust="spacing" textLength="173.9893" x="362.6123" y="1004.4878">Simpan/perbarui per siswa</text><text fill="#000000" font-family="DejaVu Sans" font-size="13" lengthAdjust="spacing" textLength="171.9199" x="362.6123" y="1019.6206">(unik per siswa + tanggal)</text><rect fill="#FDF8FD" height="35.1328" rx="5" ry="5" style="stroke:#A64CA6;stroke-width:0.5;" width="290.6704" x="304.2717" y="1052.6865"/><text fill="#000000" font-family="DejaVu Sans" font-size="13" lengthAdjust="spacing" textLength="270.6704" x="314.2717" y="1074.7534">Catat log audit ATTENDANCE_BULK_SAVE</text><rect fill="#FDF8FD" height="35.1328" rx="5" ry="5" style="stroke:#A64CA6;stroke-width:0.5;" width="281.5742" x="308.8198" y="1107.8193"/><text fill="#000000" font-family="DejaVu Sans" font-size="13" lengthAdjust="spacing" textLength="261.5742" x="318.8198" y="1129.8862">Tampilkan "berhasil disimpan (n siswa)"</text><line style="stroke:#A64CA6;stroke-width:1.5;" x1="283.6436" x2="283.6436" y1="48.8628" y2="1184.9521"/><line style="stroke:#A64CA6;stroke-width:1.5;" x1="638.5703" x2="638.5703" y1="48.8628" y2="1184.9521"/><line style="stroke:#7A3F86;stroke-width:1;" x1="141.3218" x2="141.3218" y1="88.9956" y2="108.9956"/><polygon fill="#7A3F86" points="137.3218,98.9956,141.3218,108.9956,145.3218,98.9956,141.3218,102.9956" style="stroke:#7A3F86;stroke-width:1;"/><line style="stroke:#7A3F86;stroke-width:1;" x1="141.3218" x2="141.3218" y1="144.1284" y2="164.1284"/><polygon fill="#7A3F86" points="137.3218,154.1284,141.3218,164.1284,145.3218,154.1284,141.3218,158.1284" style="stroke:#7A3F86;stroke-width:1;"/><line style="stroke:#7A3F86;stroke-width:1;" x1="141.3218" x2="141.3218" y1="494.8589" y2="520.4253"/><polygon fill="#7A3F86" points="137.3218,510.4253,141.3218,520.4253,145.3218,510.4253,141.3218,514.4253" style="stroke:#7A3F86;stroke-width:1;"/><line style="stroke:#7A3F86;stroke-width:1;" x1="198.1045" x2="247.1611" y1="482.8589" y2="482.8589"/><polygon fill="#7A3F86" points="243.1611,527.9917,247.1611,537.9917,251.1611,527.9917,247.1611,531.9917" style="stroke:#7A3F86;stroke-width:1;"/><line style="stroke:#7A3F86;stroke-width:1;" x1="247.1611" x2="247.1611" y1="482.8589" y2="587.5581"/><line style="stroke:#7A3F86;stroke-width:1;" x1="247.1611" x2="153.3218" y1="587.5581" y2="587.5581"/><polygon fill="#7A3F86" points="163.3218,583.5581,153.3218,587.5581,163.3218,591.5581,159.3218,587.5581" style="stroke:#7A3F86;stroke-width:1;"/><line style="stroke:#7A3F86;stroke-width:1;" x1="141.3218" x2="141.3218" y1="555.5581" y2="575.5581"/><polygon fill="#7A3F86" points="137.3218,565.5581,141.3218,575.5581,145.3218,565.5581,141.3218,569.5581" style="stroke:#7A3F86;stroke-width:1;"/><line style="stroke:#7A3F86;stroke-width:1;" x1="141.3218" x2="141.3218" y1="713.8237" y2="748.8237"/><polygon fill="#7A3F86" points="137.3218,738.8237,141.3218,748.8237,145.3218,738.8237,141.3218,742.8237" style="stroke:#7A3F86;stroke-width:1;"/><line style="stroke:#7A3F86;stroke-width:1;" x1="141.3218" x2="141.3218" y1="643.5581" y2="663.5581"/><polygon fill="#7A3F86" points="137.3218,653.5581,141.3218,663.5581,145.3218,653.5581,141.3218,657.5581" style="stroke:#7A3F86;stroke-width:1;"/><line style="stroke:#7A3F86;stroke-width:1;" x1="252.6436" x2="264.6436" y1="815.9565" y2="815.9565"/><polygon fill="#7A3F86" points="260.6436,733.7573,264.6436,723.7573,268.6436,733.7573,264.6436,729.7573" style="stroke:#7A3F86;stroke-width:1;"/><line style="stroke:#7A3F86;stroke-width:1;" x1="264.6436" x2="264.6436" y1="631.5581" y2="815.9565"/><line style="stroke:#7A3F86;stroke-width:1;" x1="264.6436" x2="153.3218" y1="631.5581" y2="631.5581"/><polygon fill="#7A3F86" points="163.3218,627.5581,153.3218,631.5581,163.3218,635.5581,159.3218,631.5581" style="stroke:#7A3F86;stroke-width:1;"/><line style="stroke:#7A3F86;stroke-width:1;" x1="141.3218" x2="141.3218" y1="783.9565" y2="803.9565"/><polygon fill="#7A3F86" points="137.3218,793.9565,141.3218,803.9565,145.3218,793.9565,141.3218,797.9565" style="stroke:#7A3F86;stroke-width:1;"/><line style="stroke:#7A3F86;stroke-width:1;" x1="141.3218" x2="141.3218" y1="599.5581" y2="619.5581"/><polygon fill="#7A3F86" points="137.3218,609.5581,141.3218,619.5581,145.3218,609.5581,141.3218,613.5581" style="stroke:#7A3F86;stroke-width:1;"/><line style="stroke:#7A3F86;stroke-width:1;" x1="141.3218" x2="141.3218" y1="827.9565" y2="872.1553"/><polygon fill="#7A3F86" points="137.3218,862.1553,141.3218,872.1553,145.3218,862.1553,141.3218,866.1553" style="stroke:#7A3F86;stroke-width:1;"/><text fill="#000000" font-family="DejaVu Sans" font-size="13" lengthAdjust="spacing" textLength="32.4556" x="145.3218" y="851.5894">tidak</text><line style="stroke:#7A3F86;stroke-width:1;" x1="449.6069" x2="449.6069" y1="310.2261" y2="336.5933"/><polygon fill="#7A3F86" points="445.6069,326.5933,449.6069,336.5933,453.6069,326.5933,449.6069,330.5933" style="stroke:#7A3F86;stroke-width:1;"/><line style="stroke:#7A3F86;stroke-width:1;" x1="449.6069" x2="449.6069" y1="249.5269" y2="275.0933"/><polygon fill="#7A3F86" points="445.6069,265.0933,449.6069,275.0933,453.6069,265.0933,449.6069,269.0933" style="stroke:#7A3F86;stroke-width:1;"/><line style="stroke:#7A3F86;stroke-width:1;" x1="575.0522" x2="619.5703" y1="234.394" y2="234.394"/><polygon fill="#7A3F86" points="615.5703,306.5933,619.5703,316.5933,623.5703,306.5933,619.5703,310.5933" style="stroke:#7A3F86;stroke-width:1;"/><line style="stroke:#7A3F86;stroke-width:1;" x1="619.5703" x2="619.5703" y1="234.394" y2="380.5933"/><line style="stroke:#7A3F86;stroke-width:1;" x1="619.5703" x2="449.6069" y1="380.5933" y2="380.5933"/><line style="stroke:#7A3F86;stroke-width:1;" x1="449.6069" x2="449.6069" y1="380.5933" y2="400.5933"/><polygon fill="#7A3F86" points="445.6069,390.5933,449.6069,400.5933,453.6069,390.5933,449.6069,394.5933" style="stroke:#7A3F86;stroke-width:1;"/><line style="stroke:#7A3F86;stroke-width:1;" x1="449.6069" x2="449.6069" y1="962.4209" y2="982.4209"/><polygon fill="#7A3F86" points="445.6069,972.4209,449.6069,982.4209,453.6069,972.4209,449.6069,976.4209" style="stroke:#7A3F86;stroke-width:1;"/><line style="stroke:#7A3F86;stroke-width:1;" x1="449.6069" x2="449.6069" y1="1032.6865" y2="1052.6865"/><polygon fill="#7A3F86" points="445.6069,1042.6865,449.6069,1052.6865,453.6069,1042.6865,449.6069,1046.6865" style="stroke:#7A3F86;stroke-width:1;"/><line style="stroke:#7A3F86;stroke-width:1;" x1="449.6069" x2="449.6069" y1="1087.8193" y2="1107.8193"/><polygon fill="#7A3F86" points="445.6069,1097.8193,449.6069,1107.8193,453.6069,1097.8193,449.6069,1101.8193" style="stroke:#7A3F86;stroke-width:1;"/><line style="stroke:#7A3F86;stroke-width:1;" x1="141.3218" x2="141.3218" y1="199.2612" y2="204.2612"/><line style="stroke:#7A3F86;stroke-width:1;" x1="141.3218" x2="449.6069" y1="204.2612" y2="204.2612"/><line style="stroke:#7A3F86;stroke-width:1;" x1="449.6069" x2="449.6069" y1="204.2612" y2="219.2612"/><polygon fill="#7A3F86" points="445.6069,209.2612,449.6069,219.2612,453.6069,209.2612,449.6069,213.2612" style="stroke:#7A3F86;stroke-width:1;"/><line style="stroke:#7A3F86;stroke-width:1;" x1="449.6069" x2="449.6069" y1="450.8589" y2="455.8589"/><line style="stroke:#7A3F86;stroke-width:1;" x1="449.6069" x2="141.3218" y1="455.8589" y2="455.8589"/><line style="stroke:#7A3F86;stroke-width:1;" x1="141.3218" x2="141.3218" y1="455.8589" y2="470.8589"/><polygon fill="#7A3F86" points="137.3218,460.8589,141.3218,470.8589,145.3218,460.8589,141.3218,464.8589" style="stroke:#7A3F86;stroke-width:1;"/><line style="stroke:#7A3F86;stroke-width:1;" x1="141.3218" x2="141.3218" y1="907.2881" y2="912.2881"/><line style="stroke:#7A3F86;stroke-width:1;" x1="141.3218" x2="449.6069" y1="912.2881" y2="912.2881"/><line style="stroke:#7A3F86;stroke-width:1;" x1="449.6069" x2="449.6069" y1="912.2881" y2="927.2881"/><polygon fill="#7A3F86" points="445.6069,917.2881,449.6069,927.2881,453.6069,917.2881,449.6069,921.2881" style="stroke:#7A3F86;stroke-width:1;"/><line style="stroke:#7A3F86;stroke-width:1;" x1="449.6069" x2="449.6069" y1="1142.9521" y2="1147.9521"/><line style="stroke:#7A3F86;stroke-width:1;" x1="449.6069" x2="141.3218" y1="1147.9521" y2="1147.9521"/><line style="stroke:#7A3F86;stroke-width:1;" x1="141.3218" x2="141.3218" y1="1147.9521" y2="1162.9521"/><polygon fill="#7A3F86" points="137.3218,1152.9521,141.3218,1162.9521,145.3218,1152.9521,141.3218,1156.9521" style="stroke:#7A3F86;stroke-width:1;"/><text fill="#000000" font-family="DejaVu Sans" font-size="13" lengthAdjust="spacing" textLength="70.4336" x="114.105" y="60.9297">Guru / Staf</text><text fill="#000000" font-family="DejaVu Sans" font-size="13" lengthAdjust="spacing" textLength="44.3955" x="438.9092" y="60.9297">Sistem</text><!--SRC=[PPB1Rjim38RlVWhEXy51qVLkOolSDjYAh4K0fpqL29XOiGdBic1AAppai8VO4-v9HbjE46mdsHBvy_j9VY2prxvKiArmm4_aMnqvSbf1ldVqWzm03uHLZoty-VKRrifKn8G6rhrYPPZW6_Ro7qN7hxxtS0E5myCnOeUzYz8drUvyWz0guyyfsNHFccfeb4Q6Z-3GL1NgB3eMn4wrnuWEa8pLAcyGTggliG5q4XnIoD3jcqcgiUPdgD4CEByC8WKbOMlzOW6kLWOIHoKsYmWWtSWzwKOCnAkJ48o81f2PAYEa3d9JOfn9FBlEHigKT11cZmvAF8WpOEBtkU2RkP8mT9x1ddeoCR0liGOiCVkdDwErGhKUXRka_lP4EU24kDBKGBn1OHYxAn4mHGkGqgpERW9Mhwn2D-QjfuxEA1EWD2ZaIsLioCdv-9EC7Bcsk1WDfe-2kvV6oWGWwInJPr3BKz25zvfa5v8dP9gypCubsk9SI_Y90_trbubD1XnC5DJQYrs9B-QRlgAMMAOKUEf540vData7RL4A6ZTMzJliFO5ydDrv8rNE5t1rsYFXJ-z7Kw2x2j2NuZtVR9RF3_dp_N9xz_9zjItorwM4NIp4j6LCMhQ70tXYWl8YplxRxyx-1G00]--></g></svg>