<svg xmlns="http://www.w3.org/2000/svg" xmlns:xlink="http://www.w3.org/1999/xlink" contentStyleType="text/css" data-diagram-type="DESCRIPTION" height="1053px" preserveAspectRatio="none" style="width:1310px;height:1053px;background:#FFFFFF;" version="1.1" viewBox="0 0 1310 1053" width="1310px" zoomAndPan="magnify"><title>Component Diagram &#8212; Arsitektur Aplikasi TK Orchid</title><defs/><g><g class="title" data-source-line="3"><text fill="#000000" font-family="DejaVu Sans" font-size="14" font-weight="bold" lengthAdjust="spacing" textLength="414.8799" x="440.8101" y="22.9951">Component Diagram &#8212; Arsitektur Aplikasi TK Orchid</text></g><!--cluster Next.js 16 (App Router)--><g class="cluster" data-entity="Next.js 16 .App Router." data-source-line="7" data-uid="ent0003" id="cluster_Next.js 16 .App Router."><path d="M45.53,195.7969 L214.821,195.7969 A7.5,7.5 0 0 1 219.821,200.7969 L226.821,216.9297 L1247.53,216.9297 A5,5 0 0 1 1252.53,221.9297 L1252.53,909.7969 A5,5 0 0 1 1247.53,914.7969 L45.53,914.7969 A5,5 0 0 1 40.53,909.7969 L40.53,200.7969 A5,5 0 0 1 45.53,195.7969" fill="#FFFFFF" style="stroke:#A64CA6;stroke-width:1.5;"/><line style="stroke:#A64CA6;stroke-width:1.5;" x1="40.53" x2="226.821" y1="216.9297" y2="216.9297"/><text fill="#000000" font-family="DejaVu Sans" font-size="13" font-weight="bold" lengthAdjust="spacing" textLength="173.291" x="44.53" y="209.8638">Next.js 16 (App Router)</text></g><!--cluster Halaman (Server Components)--><g class="cluster" data-entity="Halaman .Server Components." data-source-line="9" data-uid="ent0005" id="cluster_Halaman .Server Components."><path d="M76.53,336.7969 L297.7448,336.7969 A7.5,7.5 0 0 1 302.7448,341.7969 L309.7448,357.9297 L916.53,357.9297 A5,5 0 0 1 921.53,362.9297 L921.53,441.7969 A5,5 0 0 1 916.53,446.7969 L76.53,446.7969 A5,5 0 0 1 71.53,441.7969 L71.53,341.7969 A5,5 0 0 1 76.53,336.7969" fill="#FFFFFF" style="stroke:#A64CA6;stroke-width:1.5;"/><line style="stroke:#A64CA6;stroke-width:1.5;" x1="71.53" x2="309.7448" y1="357.9297" y2="357.9297"/><text fill="#000000" font-family="DejaVu Sans" font-size="13" font-weight="bold" lengthAdjust="spacing" textLength="225.2148" x="75.53" y="350.8638">Halaman (Server Components)</text></g><!--cluster Komponen UI (Client)--><g class="cluster" data-entity="Komponen UI .Client." data-source-line="16" data-uid="ent0011" id="cluster_Komponen UI .Client."><path d="M580.53,479.7969 L733.7107,479.7969 A7.5,7.5 0 0 1 738.7107,484.7969 L745.7107,500.9297 L746.53,500.9297 A5,5 0 0 1 751.53,505.9297 L751.53,584.7969 A5,5 0 0 1 746.53,589.7969 L580.53,589.7969 A5,5 0 0 1 575.53,584.7969 L575.53,484.7969 A5,5 0 0 1 580.53,479.7969" fill="#FFFFFF" style="stroke:#A64CA6;stroke-width:1.5;"/><line style="stroke:#A64CA6;stroke-width:1.5;" x1="575.53" x2="745.7107" y1="500.9297" y2="500.9297"/><text fill="#000000" font-family="DejaVu Sans" font-size="13" font-weight="bold" lengthAdjust="spacing" textLength="157.1807" x="579.53" y="493.8638">Komponen UI (Client)</text></g><!--cluster Server Actions (src/actions)--><g class="cluster" data-entity="Server Actions .src.actions." data-source-line="19" data-uid="ent0013" id="cluster_Server Actions .src.actions."><path d="M156.53,622.7969 L355.7946,622.7969 A7.5,7.5 0 0 1 360.7946,627.7969 L367.7946,643.9297 L1173.53,643.9297 A5,5 0 0 1 1178.53,648.9297 L1178.53,727.7969 A5,5 0 0 1 1173.53,732.7969 L156.53,732.7969 A5,5 0 0 1 151.53,727.7969 L151.53,627.7969 A5,5 0 0 1 156.53,622.7969" fill="#FFFFFF" style="stroke:#A64CA6;stroke-width:1.5;"/><line style="stroke:#A64CA6;stroke-width:1.5;" x1="151.53" x2="367.7946" y1="643.9297" y2="643.9297"/><text fill="#000000" font-family="DejaVu Sans" font-size="13" font-weight="bold" lengthAdjust="spacing" textLength="203.2646" x="155.53" y="636.8638">Server Actions (src/actions)</text></g><!--cluster Library (src/lib)--><g class="cluster" data-entity="Library .src.lib." data-source-line="26" data-uid="ent0019" id="cluster_Library .src.lib."><path d="M357.53,765.7969 L466.8738,765.7969 A7.5,7.5 0 0 1 471.8738,770.7969 L478.8738,786.9297 L1193.53,786.9297 A5,5 0 0 1 1198.53,791.9297 L1198.53,885.7969 A5,5 0 0 1 1193.53,890.7969 L357.53,890.7969 A5,5 0 0 1 352.53,885.7969 L352.53,770.7969 A5,5 0 0 1 357.53,765.7969" fill="#FFFFFF" style="stroke:#A64CA6;stroke-width:1.5;"/><line style="stroke:#A64CA6;stroke-width:1.5;" x1="352.53" x2="478.8738" y1="786.9297" y2="786.9297"/><text fill="#000000" font-family="DejaVu Sans" font-size="13" font-weight="bold" lengthAdjust="spacing" textLength="113.3438" x="356.53" y="779.8638">Library (src/lib)</text></g><!--entity Proxy--><g class="entity" data-entity="Proxy" data-source-line="8" data-uid="ent0004" id="entity_Proxy"><rect fill="#FDF8FD" height="60.2656" rx="5" ry="5" style="stroke:#A64CA6;stroke-width:0.5;" width="164.0522" x="421.53" y="229.7969"/><rect fill="#FDF8FD" height="10" style="stroke:#A64CA6;stroke-width:0.5;" width="15" x="565.5822" y="234.7969"/><rect fill="#FDF8FD" height="2" style="stroke:#A64CA6;stroke-width:0.5;" width="4" x="563.5822" y="236.7969"/><rect fill="#FDF8FD" height="2" style="stroke:#A64CA6;stroke-width:0.5;" width="4" x="563.5822" y="240.7969"/><text fill="#000000" font-family="DejaVu Sans" font-size="13" lengthAdjust="spacing" textLength="124.0522" x="436.53" y="261.8638">Proxy / Middleware</text><text fill="#000000" font-family="DejaVu Sans" font-size="13" lengthAdjust="spacing" textLength="86.728" x="436.53" y="276.9966">(src/proxy.ts)</text></g><!--entity Media--><g class="entity" data-entity="Media" data-source-line="32" data-uid="ent0024" id="entity_Media"><rect fill="#FDF8FD" height="60.2656" rx="5" ry="5" style="stroke:#A64CA6;stroke-width:0.5;" width="163.5317" x="1072.53" y="229.7969"/><rect fill="#FDF8FD" height="10" style="stroke:#A64CA6;stroke-width:0.5;" width="15" x="1216.0617" y="234.7969"/><rect fill="#FDF8FD" height="2" style="stroke:#A64CA6;stroke-width:0.5;" width="4" x="1214.0617" y="236.7969"/><rect fill="#FDF8FD" height="2" style="stroke:#A64CA6;stroke-width:0.5;" width="4" x="1214.0617" y="240.7969"/><text fill="#000000" font-family="DejaVu Sans" font-size="13" lengthAdjust="spacing" textLength="87.3247" x="1087.53" y="261.8638">Route /media</text><text fill="#000000" font-family="DejaVu Sans" font-size="13" lengthAdjust="spacing" textLength="123.5317" x="1087.53" y="276.9966">(berkas unggahan)</text></g><!--entity Public--><g class="entity" data-entity="Public" data-source-line="10" data-uid="ent0006" id="entity_Public"><rect fill="#FDF8FD" height="60.2656" rx="5" ry="5" style="stroke:#A64CA6;stroke-width:0.5;" width="136.2114" x="435.53" y="370.7969"/><rect fill="#FDF8FD" height="10" style="stroke:#A64CA6;stroke-width:0.5;" width="15" x="551.7414" y="375.7969"/><rect fill="#FDF8FD" height="2" style="stroke:#A64CA6;stroke-width:0.5;" width="4" x="549.7414" y="377.7969"/><rect fill="#FDF8FD" height="2" style="stroke:#A64CA6;stroke-width:0.5;" width="4" x="549.7414" y="381.7969"/><text fill="#000000" font-family="DejaVu Sans" font-size="13" lengthAdjust="spacing" textLength="96.2114" x="450.53" y="402.8638">Website publik</text><text fill="#000000" font-family="DejaVu Sans" font-size="13" lengthAdjust="spacing" textLength="88.2515" x="450.53" y="417.9966">(app/(public))</text></g><!--entity AuthPages--><g class="entity" data-entity="AuthPages" data-source-line="11" data-uid="ent0007" id="entity_AuthPages"><rect fill="#FDF8FD" height="60.2656" rx="5" ry="5" style="stroke:#A64CA6;stroke-width:0.5;" width="118.6792" x="88.03" y="370.7969"/><rect fill="#FDF8FD" height="10" style="stroke:#A64CA6;stroke-width:0.5;" width="15" x="186.7092" y="375.7969"/><rect fill="#FDF8FD" height="2" style="stroke:#A64CA6;stroke-width:0.5;" width="4" x="184.7092" y="377.7969"/><rect fill="#FDF8FD" height="2" style="stroke:#A64CA6;stroke-width:0.5;" width="4" x="184.7092" y="381.7969"/><text fill="#000000" font-family="DejaVu Sans" font-size="13" lengthAdjust="spacing" textLength="30.4688" x="103.03" y="402.8638">Auth</text><text fill="#000000" font-family="DejaVu Sans" font-size="13" lengthAdjust="spacing" textLength="78.6792" x="103.03" y="417.9966">(app/(auth))</text></g><!--entity Admin--><g class="entity" data-entity="Admin" data-source-line="12" data-uid="ent0008" id="entity_Admin"><rect fill="#FDF8FD" height="60.2656" rx="5" ry="5" style="stroke:#A64CA6;stroke-width:0.5;" width="158.1362" x="242.53" y="370.7969"/><rect fill="#FDF8FD" height="10" style="stroke:#A64CA6;stroke-width:0.5;" width="15" x="380.6662" y="375.7969"/><rect fill="#FDF8FD" height="2" style="stroke:#A64CA6;stroke-width:0.5;" width="4" x="378.6662" y="377.7969"/><rect fill="#FDF8FD" height="2" style="stroke:#A64CA6;stroke-width:0.5;" width="4" x="378.6662" y="381.7969"/><text fill="#000000" font-family="DejaVu Sans" font-size="13" lengthAdjust="spacing" textLength="106.2661" x="257.53" y="402.8638">Area Admin/Staf</text><text fill="#000000" font-family="DejaVu Sans" font-size="13" lengthAdjust="spacing" textLength="118.1362" x="257.53" y="417.9966">(app/(dashboard))</text></g><!--entity Guru--><g class="entity" data-entity="Guru" data-source-line="13" data-uid="ent0009" id="entity_Guru"><rect fill="#FDF8FD" height="60.2656" rx="5" ry="5" style="stroke:#A64CA6;stroke-width:0.5;" width="113.8423" x="606.53" y="370.7969"/><rect fill="#FDF8FD" height="10" style="stroke:#A64CA6;stroke-width:0.5;" width="15" x="700.3723" y="375.7969"/><rect fill="#FDF8FD" height="2" style="stroke:#A64CA6;stroke-width:0.5;" width="4" x="698.3723" y="377.7969"/><rect fill="#FDF8FD" height="2" style="stroke:#A64CA6;stroke-width:0.5;" width="4" x="698.3723" y="381.7969"/><text fill="#000000" font-family="DejaVu Sans" font-size="13" lengthAdjust="spacing" textLength="73.8423" x="621.53" y="402.8638">Portal Guru</text><text fill="#000000" font-family="DejaVu Sans" font-size="13" lengthAdjust="spacing" textLength="69.0688" x="621.53" y="417.9966">(app/guru)</text></g><!--entity Portal--><g class="entity" data-entity="Portal" data-source-line="14" data-uid="ent0010" id="entity_Portal"><rect fill="#FDF8FD" height="60.2656" rx="5" ry="5" style="stroke:#A64CA6;stroke-width:0.5;" width="150.2588" x="755.53" y="370.7969"/><rect fill="#FDF8FD" height="10" style="stroke:#A64CA6;stroke-width:0.5;" width="15" x="885.7888" y="375.7969"/><rect fill="#FDF8FD" height="2" style="stroke:#A64CA6;stroke-width:0.5;" width="4" x="883.7888" y="377.7969"/><rect fill="#FDF8FD" height="2" style="stroke:#A64CA6;stroke-width:0.5;" width="4" x="883.7888" y="381.7969"/><text fill="#000000" font-family="DejaVu Sans" font-size="13" lengthAdjust="spacing" textLength="110.2588" x="770.53" y="402.8638">Portal Orang Tua</text><text fill="#000000" font-family="DejaVu Sans" font-size="13" lengthAdjust="spacing" textLength="77.2192" x="770.53" y="417.9966">(app/portal)</text></g><!--entity UI--><g class="entity" data-entity="UI" data-source-line="17" data-uid="ent0012" id="entity_UI"><rect fill="#FDF8FD" height="60.2656" rx="5" ry="5" style="stroke:#A64CA6;stroke-width:0.5;" width="142.8828" x="592.03" y="513.7969"/><rect fill="#FDF8FD" height="10" style="stroke:#A64CA6;stroke-width:0.5;" width="15" x="714.9128" y="518.7969"/><rect fill="#FDF8FD" height="2" style="stroke:#A64CA6;stroke-width:0.5;" width="4" x="712.9128" y="520.7969"/><rect fill="#FDF8FD" height="2" style="stroke:#A64CA6;stroke-width:0.5;" width="4" x="712.9128" y="524.7969"/><text fill="#000000" font-family="DejaVu Sans" font-size="13" lengthAdjust="spacing" textLength="102.8828" x="607.03" y="545.8638">Formulir &amp; shell</text><text fill="#000000" font-family="DejaVu Sans" font-size="13" lengthAdjust="spacing" textLength="101.3403" x="607.03" y="560.9966">(components/*)</text></g><!--entity ActAkad--><g class="entity" data-entity="ActAkad" data-source-line="20" data-uid="ent0014" id="entity_ActAkad"><rect fill="#FDF8FD" height="60.2656" rx="5" ry="5" style="stroke:#A64CA6;stroke-width:0.5;" width="160.8149" x="168.03" y="656.7969"/><rect fill="#FDF8FD" height="10" style="stroke:#A64CA6;stroke-width:0.5;" width="15" x="308.8449" y="661.7969"/><rect fill="#FDF8FD" height="2" style="stroke:#A64CA6;stroke-width:0.5;" width="4" x="306.8449" y="663.7969"/><rect fill="#FDF8FD" height="2" style="stroke:#A64CA6;stroke-width:0.5;" width="4" x="306.8449" y="667.7969"/><text fill="#000000" font-family="DejaVu Sans" font-size="13" lengthAdjust="spacing" textLength="120.8149" x="183.03" y="688.8638">Siswa, Wali, Kelas,</text><text fill="#000000" font-family="DejaVu Sans" font-size="13" lengthAdjust="spacing" textLength="86.7788" x="183.03" y="703.9966">Tahun Ajaran</text></g><!--entity ActNilai--><g class="entity" data-entity="ActNilai" data-source-line="21" data-uid="ent0015" id="entity_ActNilai"><rect fill="#FDF8FD" height="60.2656" rx="5" ry="5" style="stroke:#A64CA6;stroke-width:0.5;" width="166.0581" x="600.53" y="656.7969"/><rect fill="#FDF8FD" height="10" style="stroke:#A64CA6;stroke-width:0.5;" width="15" x="746.5881" y="661.7969"/><rect fill="#FDF8FD" height="2" style="stroke:#A64CA6;stroke-width:0.5;" width="4" x="744.5881" y="663.7969"/><rect fill="#FDF8FD" height="2" style="stroke:#A64CA6;stroke-width:0.5;" width="4" x="744.5881" y="667.7969"/><text fill="#000000" font-family="DejaVu Sans" font-size="13" lengthAdjust="spacing" textLength="126.0581" x="615.53" y="688.8638">Presensi, Penilaian,</text><text fill="#000000" font-family="DejaVu Sans" font-size="13" lengthAdjust="spacing" textLength="52.9648" x="615.53" y="703.9966">Laporan</text></g><!--entity ActPpdb--><g class="entity" data-entity="ActPpdb" data-source-line="22" data-uid="ent0016" id="entity_ActPpdb"><rect fill="#FDF8FD" height="45.1328" rx="5" ry="5" style="stroke:#A64CA6;stroke-width:0.5;" width="190.0586" x="972.53" y="664.2969"/><rect fill="#FDF8FD" height="10" style="stroke:#A64CA6;stroke-width:0.5;" width="15" x="1142.5886" y="669.2969"/><rect fill="#FDF8FD" height="2" style="stroke:#A64CA6;stroke-width:0.5;" width="4" x="1140.5886" y="671.2969"/><rect fill="#FDF8FD" height="2" style="stroke:#A64CA6;stroke-width:0.5;" width="4" x="1140.5886" y="675.2969"/><text fill="#000000" font-family="DejaVu Sans" font-size="13" lengthAdjust="spacing" textLength="150.0586" x="987.53" y="696.3638">PPDB (publik &amp; review)</text></g><!--entity ActUang--><g class="entity" data-entity="ActUang" data-source-line="23" data-uid="ent0017" id="entity_ActUang"><rect fill="#FDF8FD" height="60.2656" rx="5" ry="5" style="stroke:#A64CA6;stroke-width:0.5;" width="200.7036" x="364.03" y="656.7969"/><rect fill="#FDF8FD" height="10" style="stroke:#A64CA6;stroke-width:0.5;" width="15" x="544.7336" y="661.7969"/><rect fill="#FDF8FD" height="2" style="stroke:#A64CA6;stroke-width:0.5;" width="4" x="542.7336" y="663.7969"/><rect fill="#FDF8FD" height="2" style="stroke:#A64CA6;stroke-width:0.5;" width="4" x="542.7336" y="667.7969"/><text fill="#000000" font-family="DejaVu Sans" font-size="13" lengthAdjust="spacing" textLength="146.542" x="379.03" y="688.8638">Tagihan, Pembayaran,</text><text fill="#000000" font-family="DejaVu Sans" font-size="13" lengthAdjust="spacing" textLength="160.7036" x="379.03" y="703.9966">Pengeluaran, Jenis Biaya</text></g><!--entity ActWeb--><g class="entity" data-entity="ActWeb" data-source-line="24" data-uid="ent0018" id="entity_ActWeb"><rect fill="#FDF8FD" height="45.1328" rx="5" ry="5" style="stroke:#A64CA6;stroke-width:0.5;" width="135.4053" x="802.03" y="664.2969"/><rect fill="#FDF8FD" height="10" style="stroke:#A64CA6;stroke-width:0.5;" width="15" x="917.4353" y="669.2969"/><rect fill="#FDF8FD" height="2" style="stroke:#A64CA6;stroke-width:0.5;" width="4" x="915.4353" y="671.2969"/><rect fill="#FDF8FD" height="2" style="stroke:#A64CA6;stroke-width:0.5;" width="4" x="915.4353" y="675.2969"/><text fill="#000000" font-family="DejaVu Sans" font-size="13" lengthAdjust="spacing" textLength="95.4053" x="817.03" y="696.3638">Website (CMS)</text></g><!--entity Auth--><g class="entity" data-entity="Auth" data-source-line="27" data-uid="ent0020" id="entity_Auth"><rect fill="#FDF8FD" height="75.3984" rx="5" ry="5" style="stroke:#A64CA6;stroke-width:0.5;" width="191.5186" x="368.53" y="799.7969"/><rect fill="#FDF8FD" height="10" style="stroke:#A64CA6;stroke-width:0.5;" width="15" x="540.0486" y="804.7969"/><rect fill="#FDF8FD" height="2" style="stroke:#A64CA6;stroke-width:0.5;" width="4" x="538.0486" y="806.7969"/><rect fill="#FDF8FD" height="2" style="stroke:#A64CA6;stroke-width:0.5;" width="4" x="538.0486" y="810.7969"/><text fill="#000000" font-family="DejaVu Sans" font-size="13" lengthAdjust="spacing" textLength="111.3633" x="383.53" y="831.8638">Auth: sesi HMAC,</text><text fill="#000000" font-family="DejaVu Sans" font-size="13" lengthAdjust="spacing" textLength="151.5186" x="383.53" y="846.9966">guard peran, rate limit,</text><text fill="#000000" font-family="DejaVu Sans" font-size="13" lengthAdjust="spacing" textLength="72.1855" x="383.53" y="862.1294">reset sandi</text></g><!--entity Cms--><g class="entity" data-entity="Cms" data-source-line="28" data-uid="ent0021" id="entity_Cms"><rect fill="#FDF8FD" height="60.2656" rx="5" ry="5" style="stroke:#A64CA6;stroke-width:0.5;" width="137.1826" x="824.03" y="807.2969"/><rect fill="#FDF8FD" height="10" style="stroke:#A64CA6;stroke-width:0.5;" width="15" x="941.2126" y="812.2969"/><rect fill="#FDF8FD" height="2" style="stroke:#A64CA6;stroke-width:0.5;" width="4" x="939.2126" y="814.2969"/><rect fill="#FDF8FD" height="2" style="stroke:#A64CA6;stroke-width:0.5;" width="4" x="939.2126" y="818.2969"/><text fill="#000000" font-family="DejaVu Sans" font-size="13" lengthAdjust="spacing" textLength="91.3047" x="839.03" y="839.3638">CMS: registry,</text><text fill="#000000" font-family="DejaVu Sans" font-size="13" lengthAdjust="spacing" textLength="97.1826" x="839.03" y="854.4966">unggah berkas</text></g><!--entity Util--><g class="entity" data-entity="Util" data-source-line="29" data-uid="ent0022" id="entity_Util"><rect fill="#FDF8FD" height="45.1328" rx="5" ry="5" style="stroke:#A64CA6;stroke-width:0.5;" width="186.4976" x="996.53" y="814.7969"/><rect fill="#FDF8FD" height="10" style="stroke:#A64CA6;stroke-width:0.5;" width="15" x="1163.0276" y="819.7969"/><rect fill="#FDF8FD" height="2" style="stroke:#A64CA6;stroke-width:0.5;" width="4" x="1161.0276" y="821.7969"/><rect fill="#FDF8FD" height="2" style="stroke:#A64CA6;stroke-width:0.5;" width="4" x="1161.0276" y="825.7969"/><text fill="#000000" font-family="DejaVu Sans" font-size="13" lengthAdjust="spacing" textLength="146.4976" x="1011.53" y="846.8638">Format &amp; aturan PPDB</text></g><!--entity Prisma--><g class="entity" data-entity="Prisma" data-source-line="30" data-uid="ent0023" id="entity_Prisma"><rect fill="#FDF8FD" height="60.2656" rx="5" ry="5" style="stroke:#A64CA6;stroke-width:0.5;" width="193.2451" x="596.03" y="807.2969"/><rect fill="#FDF8FD" height="10" style="stroke:#A64CA6;stroke-width:0.5;" width="15" x="769.2751" y="812.2969"/><rect fill="#FDF8FD" height="2" style="stroke:#A64CA6;stroke-width:0.5;" width="4" x="767.2751" y="814.2969"/><rect fill="#FDF8FD" height="2" style="stroke:#A64CA6;stroke-width:0.5;" width="4" x="767.2751" y="818.2969"/><text fill="#000000" font-family="DejaVu Sans" font-size="13" lengthAdjust="spacing" textLength="85.9663" x="611.03" y="839.3638">Prisma Client</text><text fill="#000000" font-family="DejaVu Sans" font-size="13" lengthAdjust="spacing" textLength="153.2451" x="611.03" y="854.4966">(adapter better-sqlite3)</text></g><!--entity User--><g class="entity" data-entity="User" data-source-line="5" data-uid="ent0002" id="entity_User"><ellipse cx="503.4428" cy="51.2969" fill="#F3E3F3" rx="8" ry="8" style="stroke:#7A3F86;stroke-width:0.5;"/><path d="M503.4428,59.2969 L503.4428,86.2969 M490.4428,67.2969 L516.4428,67.2969 M503.4428,86.2969 L490.4428,101.2969 M503.4428,86.2969 L516.4428,101.2969" fill="none" style="stroke:#7A3F86;stroke-width:0.5;"/><text fill="#000000" font-family="DejaVu Sans" font-size="13" lengthAdjust="spacing" textLength="65.0254" x="465.03" y="114.8638">Pengguna</text><text fill="#000000" font-family="DejaVu Sans" font-size="13" lengthAdjust="spacing" textLength="76.8257" x="465.03" y="129.9966">(peramban)</text></g><!--entity DB--><g class="entity" data-entity="DB" data-source-line="35" data-uid="ent0025" id="entity_DB"><path d="M635.53,971.7969 C635.53,961.7969 692.3154,961.7969 692.3154,961.7969 C692.3154,961.7969 749.1008,961.7969 749.1008,971.7969 L749.1008,1026.1953 C749.1008,1036.1953 692.3154,1036.1953 692.3154,1036.1953 C692.3154,1036.1953 635.53,1036.1953 635.53,1026.1953 L635.53,971.7969" fill="#FFF6E5" style="stroke:#E9A24B;stroke-width:0.5;"/><path d="M635.53,971.7969 C635.53,981.7969 692.3154,981.7969 692.3154,981.7969 C692.3154,981.7969 749.1008,981.7969 749.1008,971.7969" fill="none" style="stroke:#E9A24B;stroke-width:0.5;"/><text fill="#000000" font-family="DejaVu Sans" font-size="13" lengthAdjust="spacing" textLength="42.4341" x="645.53" y="997.8638">SQLite</text><text fill="#000000" font-family="DejaVu Sans" font-size="13" lengthAdjust="spacing" textLength="93.5708" x="645.53" y="1012.9966">prisma/dev.db</text><text fill="#000000" font-family="DejaVu Sans" font-size="13" lengthAdjust="spacing" textLength="63.7432" x="645.53" y="1028.1294">(37 tabel)</text></g><!--entity Files--><g class="entity" data-entity="Files" data-source-line="36" data-uid="ent0026" id="entity_Files"><path d="M1102.03,964.7969 L1138.03,964.7969 A7.5,7.5 0 0 1 1143.03,969.7969 L1150.03,985.7969 L1258.7331,985.7969 A5,5 0 0 1 1263.7331,990.7969 L1263.7331,1028.0625 A5,5 0 0 1 1258.7331,1033.0625 L1102.03,1033.0625 A5,5 0 0 1 1097.03,1028.0625 L1097.03,969.7969 A5,5 0 0 1 1102.03,964.7969" fill="#F1F1F1" style="stroke:#181818;stroke-width:0.5;"/><line style="stroke:#181818;stroke-width:0.5;" x1="1097.03" x2="1150.03" y1="985.7969" y2="985.7969"/><text fill="#000000" font-family="DejaVu Sans" font-size="13" lengthAdjust="spacing" textLength="136.7031" x="1107.03" y="1004.8638">Penyimpanan berkas</text><text fill="#000000" font-family="DejaVu Sans" font-size="13" lengthAdjust="spacing" textLength="61.1914" x="1107.03" y="1019.9966">(uploads)</text></g><!--link User to Proxy--><g class="link" data-entity-1="User" data-entity-2="Proxy" data-source-line="38" data-uid="lnk27" id="link_User_Proxy"><path d="M503.53,133.0169 C503.53,163.5169 503.53,197.1969 503.53,223.7569" fill="none" id="User-to-Proxy" style="stroke:#7A3F86;stroke-width:1;"/><polygon fill="#7A3F86" points="503.53,229.7569,507.53,220.7569,503.53,224.7569,499.53,220.7569,503.53,229.7569" style="stroke:#7A3F86;stroke-width:1;"/><text fill="#000000" font-family="DejaVu Sans" font-size="13" lengthAdjust="spacing" textLength="41.7485" x="504.53" y="175.8638">HTTPS</text></g><!--link Proxy to Public--><g class="link" data-entity-1="Proxy" data-entity-2="Public" data-source-line="39" data-uid="lnk28" id="link_Proxy_Public"><path d="M503.53,289.9369 C503.53,313.6569 503.53,340.9869 503.53,364.6969" fill="none" id="Proxy-to-Public" style="stroke:#7A3F86;stroke-width:1;"/><polygon fill="#7A3F86" points="503.53,370.6969,507.53,361.6969,503.53,365.6969,499.53,361.6969,503.53,370.6969" style="stroke:#7A3F86;stroke-width:1;"/></g><!--link Proxy to AuthPages--><g class="link" data-entity-1="Proxy" data-entity-2="AuthPages" data-source-line="40" data-uid="lnk29" id="link_Proxy_AuthPages"><path d="M421.48,269.7169 C363.72,278.5769 286.05,295.8269 224.53,328.7969 C204.82,339.3569 190.4135,351.8273 176.4635,366.4373" fill="none" id="Proxy-to-AuthPages" style="stroke:#7A3F86;stroke-width:1;"/><polygon fill="#7A3F86" points="172.32,370.7769,181.4283,367.0299,175.7729,367.1606,175.6422,361.5053,172.32,370.7769" style="stroke:#7A3F86;stroke-width:1;"/></g><!--link Proxy to Admin--><g class="link" data-entity-1="Proxy" data-entity-2="Admin" data-source-line="41" data-uid="lnk30" id="link_Proxy_Admin"><path d="M465.38,289.9369 C434.31,313.6569 395.4487,343.3455 364.3987,367.0555" fill="none" id="Proxy-to-Admin" style="stroke:#7A3F86;stroke-width:1;"/><polygon fill="#7A3F86" points="359.63,370.6969,369.2106,368.4139,363.6039,367.6624,364.3554,362.0557,359.63,370.6969" style="stroke:#7A3F86;stroke-width:1;"/></g><!--link Proxy to Guru--><g class="link" data-entity-1="Proxy" data-entity-2="Guru" data-source-line="42" data-uid="lnk31" id="link_Proxy_Guru"><path d="M541.84,289.8269 C556.96,301.6069 574.32,315.5369 589.53,328.7969 C604.7,342.0169 616.5995,353.2027 629.9595,366.2627" fill="none" id="Proxy-to-Guru" style="stroke:#7A3F86;stroke-width:1;"/><polygon fill="#7A3F86" points="634.25,370.4569,630.6103,361.3052,630.6746,366.9617,625.0181,367.0259,634.25,370.4569" style="stroke:#7A3F86;stroke-width:1;"/></g><!--link Proxy to Portal--><g class="link" data-entity-1="Proxy" data-entity-2="Portal" data-source-line="43" data-uid="lnk32" id="link_Proxy_Portal"><path d="M585.76,276.6069 C632.21,287.4669 690.43,304.3969 738.53,328.7969 C760.3,339.8369 777.4606,352.4301 794.3406,366.7201" fill="none" id="Proxy-to-Portal" style="stroke:#7A3F86;stroke-width:1;"/><polygon fill="#7A3F86" points="798.92,370.5969,794.6354,361.7288,795.1038,367.3663,789.4664,367.8347,798.92,370.5969" style="stroke:#7A3F86;stroke-width:1;"/></g><!--link Admin to UI--><g class="link" data-entity-1="Admin" data-entity-2="UI" data-source-line="44" data-uid="lnk33" id="link_Admin_UI"><path d="M371.12,430.8169 C386.11,439.0669 402.78,447.7169 418.53,454.7969 C475.52,480.4169 536.7114,502.1492 586.1814,518.4492" fill="none" id="Admin-to-UI" style="stroke:#7A3F86;stroke-width:1;stroke-dasharray:7,7;"/><polygon fill="#7A3F86" points="591.88,520.3269,584.5838,513.7113,587.1311,518.7622,582.0803,521.3095,591.88,520.3269" style="stroke:#7A3F86;stroke-width:1;"/></g><!--link Guru to UI--><g class="link" data-entity-1="Guru" data-entity-2="UI" data-source-line="45" data-uid="lnk34" id="link_Guru_UI"><path d="M663.53,431.0169 C663.53,455.2069 663.53,483.4269 663.53,507.6169" fill="none" id="Guru-to-UI" style="stroke:#7A3F86;stroke-width:1;stroke-dasharray:7,7;"/><polygon fill="#7A3F86" points="663.53,513.6169,667.53,504.6169,663.53,508.6169,659.53,504.6169,663.53,513.6169" style="stroke:#7A3F86;stroke-width:1;"/></g><!--link Portal to UI--><g class="link" data-entity-1="Portal" data-entity-2="UI" data-source-line="46" data-uid="lnk35" id="link_Portal_UI"><path d="M795.93,431.0169 C767.27,455.2069 731.3244,485.5561 702.6744,509.7461" fill="none" id="Portal-to-UI" style="stroke:#7A3F86;stroke-width:1;stroke-dasharray:7,7;"/><polygon fill="#7A3F86" points="698.09,513.6169,707.5472,510.867,701.9104,510.3912,702.3861,504.7544,698.09,513.6169" style="stroke:#7A3F86;stroke-width:1;"/></g><!--link Public to UI--><g class="link" data-entity-1="Public" data-entity-2="UI" data-source-line="47" data-uid="lnk36" id="link_Public_UI"><path d="M536.68,431.0169 C564.14,455.2069 598.4685,485.46 625.9185,509.65" fill="none" id="Public-to-UI" style="stroke:#7A3F86;stroke-width:1;stroke-dasharray:7,7;"/><polygon fill="#7A3F86" points="630.42,513.6169,626.3123,504.6655,626.6687,510.3111,621.0231,510.6675,630.42,513.6169" style="stroke:#7A3F86;stroke-width:1;"/></g><!--link UI to ActAkad--><g class="link" data-entity-1="UI" data-entity-2="ActAkad" data-source-line="48" data-uid="lnk37" id="link_UI_ActAkad"><path d="M591.97,552.1269 C525.94,560.8369 426.35,578.9469 346.53,614.7969 C322.96,625.3869 304.0801,638.4199 285.9801,653.0199" fill="none" id="UI-to-ActAkad" style="stroke:#7A3F86;stroke-width:1;"/><polygon fill="#7A3F86" points="281.31,656.7869,290.8265,654.2497,285.2017,653.6477,285.8038,648.023,281.31,656.7869" style="stroke:#7A3F86;stroke-width:1;"/></g><!--link UI to ActNilai--><g class="link" data-entity-1="UI" data-entity-2="ActNilai" data-source-line="49" data-uid="lnk38" id="link_UI_ActNilai"><path d="M667.67,574.0169 C671.11,598.2069 675.1177,626.4863 678.5477,650.6763" fill="none" id="UI-to-ActNilai" style="stroke:#7A3F86;stroke-width:1;"/><polygon fill="#7A3F86" points="679.39,656.6169,682.0869,647.1444,678.6881,651.6664,674.1661,648.2676,679.39,656.6169" style="stroke:#7A3F86;stroke-width:1;"/></g><!--link UI to ActPpdb--><g class="link" data-entity-1="UI" data-entity-2="ActPpdb" data-source-line="50" data-uid="lnk39" id="link_UI_ActPpdb"><path d="M735.24,555.3569 C795.43,565.7769 882.81,584.5969 954.53,614.7969 C985.07,627.6569 1011.8685,644.8082 1033.8785,660.5382" fill="none" id="UI-to-ActPpdb" style="stroke:#7A3F86;stroke-width:1;"/><polygon fill="#7A3F86" points="1038.76,664.0269,1033.7635,655.5395,1034.6921,661.1196,1029.112,662.0482,1038.76,664.0269" style="stroke:#7A3F86;stroke-width:1;"/></g><!--link UI to ActUang--><g class="link" data-entity-1="UI" data-entity-2="ActUang" data-source-line="51" data-uid="lnk40" id="link_UI_ActUang"><path d="M622.3,574.0169 C588.14,598.2069 544.7456,628.9581 510.6056,653.1481" fill="none" id="UI-to-ActUang" style="stroke:#7A3F86;stroke-width:1;"/><polygon fill="#7A3F86" points="505.71,656.6169,515.366,654.6774,509.7897,653.7262,510.7409,648.1499,505.71,656.6169" style="stroke:#7A3F86;stroke-width:1;"/></g><!--link UI to ActWeb--><g class="link" data-entity-1="UI" data-entity-2="ActWeb" data-source-line="52" data-uid="lnk41" id="link_UI_ActWeb"><path d="M718.36,573.8869 C739.54,585.7969 763.65,600.1969 784.53,614.7969 C806.28,629.9969 824.7891,645.4679 841.3691,660.1579" fill="none" id="UI-to-ActWeb" style="stroke:#7A3F86;stroke-width:1;"/><polygon fill="#7A3F86" points="845.86,664.1369,841.7763,655.1745,842.1176,660.8211,836.4711,661.1624,845.86,664.1369" style="stroke:#7A3F86;stroke-width:1;"/></g><!--link AuthPages to Auth--><g class="link" data-entity-1="AuthPages" data-entity-2="Auth" data-source-line="53" data-uid="lnk42" id="link_AuthPages_Auth"><path d="M108.46,430.9269 C99.19,440.0069 90.55,450.8169 85.53,462.7969 C36.24,580.4469 6,650.0669 85.53,749.7969 C120.3,793.3969 262.1362,816.0888 362.5562,827.1688" fill="none" id="AuthPages-to-Auth" style="stroke:#7A3F86;stroke-width:1;"/><polygon fill="#7A3F86" points="368.52,827.8269,360.013,822.864,363.5502,827.2785,359.1356,830.8157,368.52,827.8269" style="stroke:#7A3F86;stroke-width:1;"/></g><!--link ActAkad to Auth--><g class="link" data-entity-1="ActAkad" data-entity-2="Auth" data-source-line="54" data-uid="lnk43" id="link_ActAkad_Auth"><path d="M290.95,716.9569 C325.35,740.6069 369.0958,770.6876 406.1558,796.1676" fill="none" id="ActAkad-to-Auth" style="stroke:#7A3F86;stroke-width:1;"/><polygon fill="#7A3F86" points="411.1,799.5669,405.9499,791.1718,406.9799,796.7341,401.4175,797.7641,411.1,799.5669" style="stroke:#7A3F86;stroke-width:1;"/></g><!--link ActNilai to Auth--><g class="link" data-entity-1="ActNilai" data-entity-2="Auth" data-source-line="55" data-uid="lnk44" id="link_ActNilai_Auth"><path d="M639.5,716.9369 C620.67,729.4569 598.48,744.2769 578.53,757.7969 C558.44,771.4069 541.3876,783.088 522.1376,796.378" fill="none" id="ActNilai-to-Auth" style="stroke:#7A3F86;stroke-width:1;"/><polygon fill="#7A3F86" points="517.2,799.7869,526.8789,797.9653,521.3147,796.9462,522.3338,791.3819,517.2,799.7869" style="stroke:#7A3F86;stroke-width:1;"/></g><!--link ActUang to Auth--><g class="link" data-entity-1="ActUang" data-entity-2="Auth" data-source-line="56" data-uid="lnk45" id="link_ActUang_Auth"><path d="M464.53,717.1369 C464.53,740.8069 464.53,768.2269 464.53,793.6469" fill="none" id="ActUang-to-Auth" style="stroke:#7A3F86;stroke-width:1;"/><polygon fill="#7A3F86" points="464.53,799.6469,468.53,790.6469,464.53,794.6469,460.53,790.6469,464.53,799.6469" style="stroke:#7A3F86;stroke-width:1;"/></g><!--link ActWeb to Auth--><g class="link" data-entity-1="ActWeb" data-entity-2="Auth" data-source-line="57" data-uid="lnk46" id="link_ActWeb_Auth"><path d="M842.5,709.3169 C826.58,720.7569 805.5,733.8469 784.53,740.7969 C697.33,769.6869 665.06,726.9269 578.53,757.7969 C552.39,767.1269 531.3815,780.3531 510.9815,796.0831" fill="none" id="ActWeb-to-Auth" style="stroke:#7A3F86;stroke-width:1;"/><polygon fill="#7A3F86" points="506.23,799.7469,515.7998,797.4189,510.1896,796.6937,510.9147,791.0835,506.23,799.7469" style="stroke:#7A3F86;stroke-width:1;"/></g><!--link ActWeb to Cms--><g class="link" data-entity-1="ActWeb" data-entity-2="Cms" data-source-line="58" data-uid="lnk47" id="link_ActWeb_Cms"><path d="M872.87,709.3869 C876.87,735.2069 882.6616,772.6076 887.1116,801.3376" fill="none" id="ActWeb-to-Cms" style="stroke:#7A3F86;stroke-width:1;"/><polygon fill="#7A3F86" points="888.03,807.2669,890.6053,797.7607,887.2647,802.3258,882.6995,798.9852,888.03,807.2669" style="stroke:#7A3F86;stroke-width:1;"/></g><!--link ActPpdb to Util--><g class="link" data-entity-1="ActPpdb" data-entity-2="Util" data-source-line="59" data-uid="lnk48" id="link_ActPpdb_Util"><path d="M1070.73,709.3869 C1074.9,737.5469 1081.2693,780.5719 1085.4493,808.7419" fill="none" id="ActPpdb-to-Util" style="stroke:#7A3F86;stroke-width:1;"/><polygon fill="#7A3F86" points="1086.33,814.6769,1088.9657,805.1872,1085.5961,809.731,1081.0523,806.3615,1086.33,814.6769" style="stroke:#7A3F86;stroke-width:1;"/></g><!--link ActAkad to Prisma--><g class="link" data-entity-1="ActAkad" data-entity-2="Prisma" data-source-line="60" data-uid="lnk49" id="link_ActAkad_Prisma"><path d="M292.67,716.8069 C308.95,726.0969 327.96,735.3669 346.53,740.7969 C445.76,769.8069 481,723.5069 578.53,757.7969 C608.91,768.4769 634.0753,785.6886 655.5853,803.2786" fill="none" id="ActAkad-to-Prisma" style="stroke:#7A3F86;stroke-width:1;"/><polygon fill="#7A3F86" points="660.23,807.0769,655.7951,798.283,656.3594,803.9117,650.7308,804.476,660.23,807.0769" style="stroke:#7A3F86;stroke-width:1;"/></g><!--link ActNilai to Prisma--><g class="link" data-entity-1="ActNilai" data-entity-2="Prisma" data-source-line="61" data-uid="lnk50" id="link_ActNilai_Prisma"><path d="M685.31,717.1369 C686.89,743.2569 688.8265,775.2579 690.4065,801.2879" fill="none" id="ActNilai-to-Prisma" style="stroke:#7A3F86;stroke-width:1;"/><polygon fill="#7A3F86" points="690.77,807.2769,694.2174,798.0511,690.4671,802.2861,686.2321,798.5358,690.77,807.2769" style="stroke:#7A3F86;stroke-width:1;"/></g><!--link ActPpdb to Prisma--><g class="link" data-entity-1="ActPpdb" data-entity-2="Prisma" data-source-line="62" data-uid="lnk51" id="link_ActPpdb_Prisma"><path d="M1029.51,709.4169 C1008.14,720.5969 980.59,733.4069 954.53,740.7969 C890.83,758.8669 868.53,734.5569 806.53,757.7969 C776.6,769.0169 751.6718,786.0021 730.1418,803.3521" fill="none" id="ActPpdb-to-Prisma" style="stroke:#7A3F86;stroke-width:1;"/><polygon fill="#7A3F86" points="725.47,807.1169,734.9876,804.5842,729.3632,803.9795,729.9679,798.3551,725.47,807.1169" style="stroke:#7A3F86;stroke-width:1;"/></g><!--link ActUang to Prisma--><g class="link" data-entity-1="ActUang" data-entity-2="Prisma" data-source-line="63" data-uid="lnk52" id="link_ActUang_Prisma"><path d="M513.14,716.8769 C533.49,729.2469 557.31,743.9869 578.53,757.7969 C603,773.7169 625.0005,788.7719 646.5405,803.8119" fill="none" id="ActUang-to-Prisma" style="stroke:#7A3F86;stroke-width:1;"/><polygon fill="#7A3F86" points="651.46,807.2469,646.3708,798.8148,647.3604,804.3844,641.7908,805.3741,651.46,807.2469" style="stroke:#7A3F86;stroke-width:1;"/></g><!--link ActWeb to Prisma--><g class="link" data-entity-1="ActWeb" data-entity-2="Prisma" data-source-line="64" data-uid="lnk53" id="link_ActWeb_Prisma"><path d="M843.79,709.3869 C813.02,735.2069 765.9663,774.6802 731.7263,803.4102" fill="none" id="ActWeb-to-Prisma" style="stroke:#7A3F86;stroke-width:1;"/><polygon fill="#7A3F86" points="727.13,807.2669,736.5956,804.5461,730.9603,804.053,731.4534,798.4177,727.13,807.2669" style="stroke:#7A3F86;stroke-width:1;"/></g><!--link Admin to Prisma--><g class="link" data-entity-1="Admin" data-entity-2="Prisma" data-source-line="65" data-uid="lnk54" id="link_Admin_Prisma"><path d="M273.86,431.0269 C258.51,439.5669 241.16,448.3269 224.53,454.7969 C195.09,466.2469 177.99,449.5969 155.53,471.7969 C69.7,556.6369 42.44,647.1269 118.53,740.7969 C130.84,755.9469 142.13,747.5969 161.53,749.7969 C207.58,755.0069 534.41,743.6069 578.53,757.7969 C609.41,767.7269 634.8216,785.1747 656.2916,803.0747" fill="none" id="Admin-to-Prisma" style="stroke:#7A3F86;stroke-width:1;"/><polygon fill="#7A3F86" points="660.9,806.9169,656.5488,798.0813,657.0596,803.7151,651.4259,804.2259,660.9,806.9169" style="stroke:#7A3F86;stroke-width:1;"/></g><!--link Guru to Prisma--><g class="link" data-entity-1="Guru" data-entity-2="Prisma" data-source-line="66" data-uid="lnk55" id="link_Guru_Prisma"><path d="M700.43,430.8069 C712.19,439.2369 725.53,447.9969 738.53,454.7969 C922.91,551.2469 1059.15,444.3669 1178.53,614.7969 C1210.66,660.6669 1217.21,700.3069 1178.53,740.7969 C1149.95,770.7169 845.75,744.6069 806.53,757.7969 C775.78,768.1369 750.3825,785.5716 728.8725,803.3716" fill="none" id="Guru-to-Prisma" style="stroke:#7A3F86;stroke-width:1;"/><polygon fill="#7A3F86" points="724.25,807.1969,733.7339,804.5407,728.1021,804.0092,728.6336,798.3774,724.25,807.1969" style="stroke:#7A3F86;stroke-width:1;"/></g><!--link Portal to Prisma--><g class="link" data-entity-1="Portal" data-entity-2="Prisma" data-source-line="67" data-uid="lnk56" id="link_Portal_Prisma"><path d="M905.71,429.2469 C1041.28,482.8769 1303.5,608.0069 1200.53,740.7969 C1190.69,753.4869 1181.44,747.6069 1165.53,749.7969 C1126,755.2469 844.49,745.5269 806.53,757.7969 C775.66,767.7769 750.2604,785.217 728.7804,803.107" fill="none" id="Portal-to-Prisma" style="stroke:#7A3F86;stroke-width:1;"/><polygon fill="#7A3F86" points="724.17,806.9469,733.6455,804.2607,728.012,803.747,728.5257,798.1135,724.17,806.9469" style="stroke:#7A3F86;stroke-width:1;"/></g><!--link Public to Prisma--><g class="link" data-entity-1="Public" data-entity-2="Prisma" data-source-line="68" data-uid="lnk57" id="link_Public_Prisma"><path d="M456.27,431.0469 C443.7,438.7969 430.11,447.1369 417.53,454.7969 C299.69,526.5469 219.44,494.7069 151.53,614.7969 C123.97,663.5469 112.73,700.4169 151.53,740.7969 C184.43,775.0369 533.48,742.7969 578.53,757.7969 C609.31,768.0469 634.7094,785.4893 656.2094,803.2993" fill="none" id="Public-to-Prisma" style="stroke:#7A3F86;stroke-width:1;"/><polygon fill="#7A3F86" points="660.83,807.1269,656.4508,798.3051,656.9795,803.9372,651.3474,804.4659,660.83,807.1269" style="stroke:#7A3F86;stroke-width:1;"/></g><!--link Prisma to DB--><g class="link" data-entity-1="Prisma" data-entity-2="DB" data-source-line="69" data-uid="lnk58" id="link_Prisma_DB"><path d="M692.53,867.5469 C692.53,894.0869 692.53,927.2769 692.53,955.7369" fill="none" id="Prisma-to-DB" style="stroke:#7A3F86;stroke-width:1;"/><polygon fill="#7A3F86" points="692.53,961.7369,696.53,952.7369,692.53,956.7369,688.53,952.7369,692.53,961.7369" style="stroke:#7A3F86;stroke-width:1;"/></g><!--link Cms to Files--><g class="link" data-entity-1="Cms" data-entity-2="Files" data-source-line="70" data-uid="lnk59" id="link_Cms_Files"><path d="M916.73,867.3069 C932.97,885.2669 955.68,907.7169 979.53,922.7969 C1015.41,945.4969 1053.4971,960.9824 1091.0271,973.2524" fill="none" id="Cms-to-Files" style="stroke:#7A3F86;stroke-width:1;"/><polygon fill="#7A3F86" points="1096.73,975.1169,1089.4186,968.5181,1091.9775,973.5631,1086.9326,976.1221,1096.73,975.1169" style="stroke:#7A3F86;stroke-width:1;"/></g><!--link Media to Files--><g class="link" data-entity-1="Media" data-entity-2="Files" data-source-line="71" data-uid="lnk60" id="link_Media_Files"><path d="M1210.22,290.0169 C1247.41,313.9569 1289.53,351.6869 1289.53,399.7969 C1289.53,399.7969 1289.53,399.7969 1289.53,838.2969 C1289.53,888.7769 1256.2063,951.8905 1225.1563,981.4405" fill="none" id="Media-to-Files" style="stroke:#7A3F86;stroke-width:1;"/><polygon fill="#7A3F86" points="1220.81,985.5769,1230.0871,982.2699,1224.4319,982.1299,1224.5719,976.4748,1220.81,985.5769" style="stroke:#7A3F86;stroke-width:1;"/></g><!--SRC=[TLJRRjim37ttLt1z6DAXJJ0Ks80-571JREtQRjcIeYy51jfI7Isox4boss0Oi8_O5-vBHbryIPe-MJpY8IdwaA-4ocN3E7mlS8rZqPGoiS9A3jEgh2l5bOKpWON64lxz-GkfDiBobMqqfBKKApG25fVmHUTBmP84Srjfs9jnLHIDmZirgZbHCrJxUu06RWpNIL9ZliA2mzvd_cJ7FmoyVGUZjAxXMzLOhidrLmAGTmNipNJrj8O9N0l697z4pIcoqVcaTXTZQq9qxqRCBluvIYnHmMZEzGFN_PjCpB6HvPPdxd5GDnczZ39WNKz6tihtOmPlR1FJnYvRTwHpT7RmZEemp_mrHqXPATHaRl6-fJ8qown2pLg-yzZcpYfjKSB7HZUHLz0n41puWlyNZQg0HOEHL7iuFigVYVXxsBlB60DkBc0qbOAYxMhQXqgNZHGQNeDPSYafVdTh9c_YRx_OZXv_I9fRKIa3_cTYC7PbcGlpY0TmYr8Sm2MNQ0xkr0ANZOBq1zBRGiDocwwGFMk1veOhGqpIfP0eK17x2ga7FV6pktZ6d9sTGb30YXwe-OFWZ_ijPLQpR9knm48iAJwb8jMlNMcKoyq3bustu1CLOU1Kq6qRwOP-pajg74slvrrA0hSxUIKoZNeTMYX5jgjzJed7O3WDw_brEgMA2Yg6WHjEgaWZvP6Y59PkNBCi65HCT2hUZaSb7LCt2c6iNXEdeN779MHSqqBmh6bfTYa5BRKHQNlGKBhc1dLO8P__Cs5AXA0xfrc6DQq6Ic7fSsX-IkhDKJlspZVsPH33RnEOb9m99_jG7OHQsuLqxIwJtqd2q6A6nadpwnN5lbEr3pjX_67CCk8VlGTouN5epawJ-qeo7hRTMfGrAdfKI4BUJIqhP74nVH2Ija3YjXyS7fw4HGN7SBvOpEP9i3mUraiFz2jaWFcrqDj-wWSnmZHxBnYFJzpmEPVs71T2Q_cChKMZxZF4EUhDC1szxQNVcrw_lUbKsbNUlIE9OJS07tW3SR4s08gsqtOIYwLusyjec2FgOYDBZtMy7kfIzr2Rh4LyLmU0x-p0ZjqT8g73GoHeso6a8dg6FmQDU3tszdy0]--></g></svg>