<svg xmlns="http://www.w3.org/2000/svg" xmlns:xlink="http://www.w3.org/1999/xlink" contentStyleType="text/css" data-diagram-type="STATE" height="409px" preserveAspectRatio="none" style="width:1003px;height:409px;background:#FFFFFF;" version="1.1" viewBox="0 0 1003 409" width="1003px" zoomAndPan="magnify"><title>State Diagram &#8212; Konten Website &amp; Transaksi Keuangan</title><defs/><g><g class="title" data-source-line="3"><text fill="#000000" font-family="DejaVu Sans" font-size="14" font-weight="bold" lengthAdjust="spacing" textLength="445.6826" x="271.7458" y="22.9951">State Diagram &#8212; Konten Website &amp; Transaksi Keuangan</text></g><path d="M12,44.2969 L236.8618,44.2969 A5,5 0 0 1 241.8618,49.2969 L241.8618,69.4297 L7,69.4297 L7,49.2969 A5,5 0 0 1 12,44.2969" fill="#FDF8FD"/><rect fill="none" height="359.3984" rx="5" ry="5" style="stroke:#A64CA6;stroke-width:0.5;" width="234.8618" x="7" y="44.2969"/><line style="stroke:#A64CA6;stroke-width:0.5;" x1="7" x2="241.8618" y1="69.4297" y2="69.4297"/><text fill="#000000" font-family="DejaVu Sans" font-size="13" lengthAdjust="spacing" textLength="214.8618" x="17" y="61.3638">Kegiatan / Pengumuman (status)</text><ellipse cx="69.4174" cy="90.4297" fill="#222222" rx="10" ry="10" style="stroke:#222222;stroke-width:1;"/><g id="Konten.DRAFT"><rect fill="#FDF8FD" height="50.2656" rx="5" ry="5" style="stroke:#A64CA6;stroke-width:0.5;" width="63.3545" x="37.9174" y="137.4297"/><line style="stroke:#A64CA6;stroke-width:0.5;" x1="37.9174" x2="101.2719" y1="162.5625" y2="162.5625"/><text fill="#000000" font-family="DejaVu Sans" font-size="13" lengthAdjust="spacing" textLength="43.3545" x="47.9174" y="154.4966">DRAFT</text><text fill="#000000" font-family="DejaVu Sans" font-size="13" lengthAdjust="spacing" textLength="27.8979" x="42.9174" y="179.6294">Draf</text></g><g id="Konten.PUBLISHED"><rect fill="#FDF8FD" height="50.2656" rx="5" ry="5" style="stroke:#A64CA6;stroke-width:0.5;" width="93.6011" x="22.4174" y="240.4297"/><line style="stroke:#A64CA6;stroke-width:0.5;" x1="22.4174" x2="116.0185" y1="265.5625" y2="265.5625"/><text fill="#000000" font-family="DejaVu Sans" font-size="13" lengthAdjust="spacing" textLength="73.6011" x="32.4174" y="257.4966">PUBLISHED</text><text fill="#000000" font-family="DejaVu Sans" font-size="13" lengthAdjust="spacing" textLength="38.2446" x="27.4174" y="282.6294">Terbit</text></g><g id="Konten.ARCHIVED"><rect fill="#FDF8FD" height="50.2656" rx="5" ry="5" style="stroke:#A64CA6;stroke-width:0.5;" width="89.3037" x="24.9174" y="343.4297"/><line style="stroke:#A64CA6;stroke-width:0.5;" x1="24.9174" x2="114.2212" y1="368.5625" y2="368.5625"/><text fill="#000000" font-family="DejaVu Sans" font-size="13" lengthAdjust="spacing" textLength="67.7295" x="35.7045" y="360.4966">ARCHIVED</text><text fill="#000000" font-family="DejaVu Sans" font-size="13" lengthAdjust="spacing" textLength="69.3037" x="29.9174" y="385.6294">Diarsipkan</text></g><!--link *start*Konten to DRAFT--><g class="link" data-entity-1=".start.Konten" data-entity-2="DRAFT" data-source-line="6" data-uid="lnk4" id="link_.start.Konten_DRAFT"><path d="M69.4174,100.5797 C69.4174,109.8497 69.4174,118.5697 69.4174,131.2097" fill="none" id="*start*Konten-to-DRAFT" style="stroke:#7A3F86;stroke-width:1;"/><polygon fill="#7A3F86" points="69.4174,137.2097,73.4174,128.2097,69.4174,132.2097,65.4174,128.2097,69.4174,137.2097" style="stroke:#7A3F86;stroke-width:1;"/></g><!--link DRAFT to PUBLISHED--><g class="link" data-entity-1="DRAFT" data-entity-2="PUBLISHED" data-source-line="10" data-uid="lnk6" id="link_DRAFT_PUBLISHED"><path d="M38.3674,187.5297 C33.4974,192.8597 29.1674,198.8897 26.4174,205.4297 C21.2074,217.8097 23.5922,225.6653 32.9722,235.7553" fill="none" id="DRAFT-to-PUBLISHED" style="stroke:#7A3F86;stroke-width:1;"/><polygon fill="#7A3F86" points="37.0574,240.1497,33.8592,230.8346,33.6531,236.4877,28,236.2815,37.0574,240.1497" style="stroke:#7A3F86;stroke-width:1;"/><text fill="#000000" font-family="DejaVu Sans" font-size="13" lengthAdjust="spacing" textLength="64.9365" x="27.4174" y="218.4966">tampilkan</text></g><!--link PUBLISHED to DRAFT--><g class="link" data-entity-1="PUBLISHED" data-entity-2="DRAFT" data-source-line="11" data-uid="lnk7" id="link_PUBLISHED_DRAFT"><path d="M86.2574,240.1797 C91.5874,229.6897 95.4174,217.1497 92.4174,205.4297 C90.8474,199.3097 90.9676,198.4367 87.9976,192.7567" fill="none" id="PUBLISHED-to-DRAFT" style="stroke:#7A3F86;stroke-width:1;"/><polygon fill="#7A3F86" points="85.2174,187.4397,85.8431,197.2687,87.5343,191.8705,92.9324,193.5617,85.2174,187.4397" style="stroke:#7A3F86;stroke-width:1;"/><text fill="#000000" font-family="DejaVu Sans" font-size="13" lengthAdjust="spacing" textLength="87.2041" x="94.4174" y="218.4966">sembunyikan</text></g><!--link PUBLISHED to ARCHIVED--><g class="link" data-entity-1="PUBLISHED" data-entity-2="ARCHIVED" data-source-line="12" data-uid="lnk9" id="link_PUBLISHED_ARCHIVED"><path d="M69.4174,290.6197 C69.4174,306.4997 69.4174,321.1797 69.4174,337.0897" fill="none" id="PUBLISHED-to-ARCHIVED" style="stroke:#7A3F86;stroke-width:1;"/><polygon fill="#7A3F86" points="69.4174,343.0897,73.4174,334.0897,69.4174,338.0897,65.4174,334.0897,69.4174,343.0897" style="stroke:#7A3F86;stroke-width:1;"/><text fill="#000000" font-family="DejaVu Sans" font-size="13" lengthAdjust="spacing" textLength="55.6816" x="70.4174" y="321.4966">arsipkan</text></g><path d="M282,58.7969 L545.2227,58.7969 A5,5 0 0 1 550.2227,63.7969 L550.2227,83.9297 L277,83.9297 L277,63.7969 A5,5 0 0 1 282,58.7969" fill="#FDF8FD"/><rect fill="none" height="330.1328" rx="5" ry="5" style="stroke:#A64CA6;stroke-width:0.5;" width="273.2227" x="277" y="58.7969"/><line style="stroke:#A64CA6;stroke-width:0.5;" x1="277" x2="550.2227" y1="83.9297" y2="83.9297"/><text fill="#000000" font-family="DejaVu Sans" font-size="13" lengthAdjust="spacing" textLength="230.4897" x="298.3665" y="75.8638">Pembayaran / Pengeluaran (status)</text><ellipse cx="415" cy="104.9297" fill="#222222" rx="10" ry="10" style="stroke:#222222;stroke-width:1;"/><g id="Transaksi.POSTED"><rect fill="#FDF8FD" height="50.2656" rx="5" ry="5" style="stroke:#A64CA6;stroke-width:0.5;" width="74.5581" x="377.5" y="151.9297"/><line style="stroke:#A64CA6;stroke-width:0.5;" x1="377.5" x2="452.0581" y1="177.0625" y2="177.0625"/><text fill="#000000" font-family="DejaVu Sans" font-size="13" lengthAdjust="spacing" textLength="52.4888" x="388.5347" y="168.9966">POSTED</text><text fill="#000000" font-family="DejaVu Sans" font-size="13" lengthAdjust="spacing" textLength="54.5581" x="382.5" y="194.1294">Tercatat</text></g><g id="Transaksi.VOID"><rect fill="#FDF8FD" height="65.3984" rx="5" ry="5" style="stroke:#A64CA6;stroke-width:0.5;" width="252.2227" x="289" y="254.9297"/><line style="stroke:#A64CA6;stroke-width:0.5;" x1="289" x2="541.2227" y1="280.0625" y2="280.0625"/><text fill="#000000" font-family="DejaVu Sans" font-size="13" lengthAdjust="spacing" textLength="32.9697" x="398.6265" y="271.9966">VOID</text><text fill="#000000" font-family="DejaVu Sans" font-size="13" lengthAdjust="spacing" textLength="70.2495" x="294" y="297.1294">Dibatalkan</text><text fill="#000000" font-family="DejaVu Sans" font-size="13" lengthAdjust="spacing" textLength="232.2227" x="294" y="312.2622">(alasan wajib, hanya Administrator)</text></g><ellipse cx="415" cy="367.9297" fill="none" rx="11" ry="11" style="stroke:#222222;stroke-width:1;"/><ellipse cx="415" cy="367.9297" fill="#222222" rx="6" ry="6" style="stroke:#222222;stroke-width:1;"/><!--link *start*Transaksi to POSTED--><g class="link" data-entity-1=".start.Transaksi" data-entity-2="POSTED" data-source-line="16" data-uid="lnk12" id="link_.start.Transaksi_POSTED"><path d="M415,115.0797 C415,124.3497 415,133.0697 415,145.7097" fill="none" id="*start*Transaksi-to-POSTED" style="stroke:#7A3F86;stroke-width:1;"/><polygon fill="#7A3F86" points="415,151.7097,419,142.7097,415,146.7097,411,142.7097,415,151.7097" style="stroke:#7A3F86;stroke-width:1;"/></g><!--link POSTED to VOID--><g class="link" data-entity-1="POSTED" data-entity-2="VOID" data-source-line="19" data-uid="lnk14" id="link_POSTED_VOID"><path d="M415,202.0097 C415,217.4897 415,231.7797 415,248.5897" fill="none" id="POSTED-to-VOID" style="stroke:#7A3F86;stroke-width:1;"/><polygon fill="#7A3F86" points="415,254.5897,419,245.5897,415,249.5897,411,245.5897,415,254.5897" style="stroke:#7A3F86;stroke-width:1;"/><text fill="#000000" font-family="DejaVu Sans" font-size="13" lengthAdjust="spacing" textLength="27.5107" x="416" y="232.9966">void</text></g><!--link VOID to *end*Transaksi--><g class="link" data-entity-1="VOID" data-entity-2=".end.Transaksi" data-source-line="20" data-uid="lnk16" id="link_VOID_.end.Transaksi"><path d="M415,320.3597 C415,333.4297 415,341.6297 415,350.8697" fill="none" id="VOID-to-*end*Transaksi" style="stroke:#7A3F86;stroke-width:1;"/><polygon fill="#7A3F86" points="415,356.8697,419,347.8697,415,351.8697,411,347.8697,415,356.8697" style="stroke:#7A3F86;stroke-width:1;"/></g><path d="M590,87.7969 L991.1743,87.7969 A5,5 0 0 1 996.1743,92.7969 L996.1743,112.9297 L585,112.9297 L585,92.7969 A5,5 0 0 1 590,87.7969" fill="#FDF8FD"/><rect fill="none" height="272.3984" rx="5" ry="5" style="stroke:#A64CA6;stroke-width:0.5;" width="411.1743" x="585" y="87.7969"/><line style="stroke:#A64CA6;stroke-width:0.5;" x1="585" x2="996.1743" y1="112.9297" y2="112.9297"/><text fill="#000000" font-family="DejaVu Sans" font-size="13" lengthAdjust="spacing" textLength="391.1743" x="595" y="104.8638">Slider, Galeri, Fasilitas, Testimoni, FAQ, Periode PPDB (aktif)</text><ellipse cx="657.7432" cy="133.9297" fill="#222222" rx="10" ry="10" style="stroke:#222222;stroke-width:1;"/><g id="Tampil.Tampil_"><rect fill="#FDF8FD" height="50.2656" rx="5" ry="5" style="stroke:#A64CA6;stroke-width:0.5;" width="94.6167" x="610.2432" y="196.9297"/><line style="stroke:#A64CA6;stroke-width:0.5;" x1="610.2432" x2="704.8599" y1="222.0625" y2="222.0625"/><text fill="#000000" font-family="DejaVu Sans" font-size="13" lengthAdjust="spacing" textLength="50.5464" x="632.2784" y="213.9966">Tampil_</text><text fill="#000000" font-family="DejaVu Sans" font-size="13" lengthAdjust="spacing" textLength="74.6167" x="615.2432" y="239.1294">aktif = true</text></g><g id="Tampil.Sembunyi"><rect fill="#FDF8FD" height="50.2656" rx="5" ry="5" style="stroke:#A64CA6;stroke-width:0.5;" width="98.8633" x="608.2432" y="299.9297"/><line style="stroke:#A64CA6;stroke-width:0.5;" x1="608.2432" x2="707.1065" y1="325.0625" y2="325.0625"/><text fill="#000000" font-family="DejaVu Sans" font-size="13" lengthAdjust="spacing" textLength="64.9492" x="625.2003" y="316.9966">Sembunyi</text><text fill="#000000" font-family="DejaVu Sans" font-size="13" lengthAdjust="spacing" textLength="78.8633" x="613.2432" y="342.1294">aktif = false</text></g><!--link *start*Tampil to Tampil_--><g class="link" data-entity-1=".start.Tampil" data-entity-2="Tampil_" data-source-line="24" data-uid="lnk19" id="link_.start.Tampil_Tampil_"><path d="M657.7432,144.1297 C657.7432,156.6097 657.7432,173.3497 657.7432,190.8597" fill="none" id="*start*Tampil-to-Tampil_" style="stroke:#7A3F86;stroke-width:1;"/><polygon fill="#7A3F86" points="657.7432,196.8597,661.7432,187.8597,657.7432,191.8597,653.7432,187.8597,657.7432,196.8597" style="stroke:#7A3F86;stroke-width:1;"/><text fill="#000000" font-family="DejaVu Sans" font-size="13" lengthAdjust="spacing" textLength="41.4185" x="658.7432" y="174.9966">dibuat</text></g><!--link Tampil_ to Sembunyi--><g class="link" data-entity-1="Tampil_" data-entity-2="Sembunyi" data-source-line="27" data-uid="lnk21" id="link_Tampil__Sembunyi"><path d="M616.8132,246.9797 C611.1332,252.1597 606.0932,258.1497 602.7432,264.9297 C596.3432,277.8597 599.4522,286.0197 610.8822,295.8397" fill="none" id="Tampil_-to-Sembunyi" style="stroke:#7A3F86;stroke-width:1;"/><polygon fill="#7A3F86" points="615.4332,299.7497,611.2133,290.8507,611.6407,296.4914,606,296.9187,615.4332,299.7497" style="stroke:#7A3F86;stroke-width:1;"/><text fill="#000000" font-family="DejaVu Sans" font-size="13" lengthAdjust="spacing" textLength="87.2041" x="603.7432" y="277.9966">sembunyikan</text></g><!--link Sembunyi to Tampil_--><g class="link" data-entity-1="Sembunyi" data-entity-2="Tampil_" data-source-line="28" data-uid="lnk22" id="link_Sembunyi_Tampil_"><path d="M682.7532,299.9297 C690.5132,289.5797 696.0432,277.0797 691.7432,264.9297 C689.4832,258.5597 689.4146,257.2486 685.2946,251.7586" fill="none" id="Sembunyi-to-Tampil_" style="stroke:#7A3F86;stroke-width:1;"/><polygon fill="#7A3F86" points="681.6932,246.9597,683.896,256.559,684.6944,250.9588,690.2946,251.7572,681.6932,246.9597" style="stroke:#7A3F86;stroke-width:1;"/><text fill="#000000" font-family="DejaVu Sans" font-size="13" lengthAdjust="spacing" textLength="64.9365" x="693.7432" y="277.9966">tampilkan</text></g><!--SRC=[RLBRIiD047tlLum-I9LKtmM5QgoM2erDr0SLcPXj7BlPo5wK8WK_mY_qIvnDsrp0f-oScNFEdjdia7gHBXFmdECI3yaLicV9IW6nHIiW9Cmr5l3x_GEJKbcXu5waXhYr1ub6PN1X22R2eSfHzNgcekrEH4veKS4HH4Bbhd055ttVTMP_5z1ivRvw00y7Jp0Od48u6uuIhgil74EeSSvbT7jsFOwlBaA64g5JiWmEP-TNuxiAuqjgG-yBzjzolLgRPh5u9xcUQF3QaoUCA5AdblJVJCkhTbhLMIDcyl9qdLP8LrMTkCsosecZQPnSXDwmEgm3ll3cVCIxwNWTBsN0N_vHzL6YOUbFVACqW5TKIuHXLf0YOpNQKkytOjvWe_5HKhPLz33xjnB4aZAX0xX4AJG5C493aYoQWAzZB1MbykZm9k1ycah-Nw8eF8C-BYpDD_cg3NV2hQ5djiyeTLMa1ggeS09MEy6DUBF-LcUEqeWMnqksnheFLZUwnisxh_u0]--></g></svg>