<svg xmlns="http://www.w3.org/2000/svg" xmlns:xlink="http://www.w3.org/1999/xlink" contentStyleType="text/css" data-diagram-type="STATE" height="578px" preserveAspectRatio="none" style="width:612px;height:578px;background:#FFFFFF;" version="1.1" viewBox="0 0 612 578" width="612px" zoomAndPan="magnify"><title>State Diagram &#8212; Laporan Perkembangan (laporan_perkembangan.status)</title><defs/><g><g class="title" data-source-line="3"><text fill="#000000" font-family="DejaVu Sans" font-size="14" font-weight="bold" lengthAdjust="spacing" textLength="584.3291" x="10" y="22.9951">State Diagram &#8212; Laporan Perkembangan (laporan_perkembangan.status)</text></g><ellipse cx="192.0598" cy="53.2969" fill="#222222" rx="10" ry="10" style="stroke:#222222;stroke-width:1;"/><g id="DRAFT"><rect fill="#FDF8FD" height="65.3984" rx="5" ry="5" style="stroke:#A64CA6;stroke-width:0.5;" width="155.4019" x="114.5598" y="140.2969"/><line style="stroke:#A64CA6;stroke-width:0.5;" x1="114.5598" x2="269.9617" y1="165.4297" y2="165.4297"/><text fill="#000000" font-family="DejaVu Sans" font-size="13" lengthAdjust="spacing" textLength="43.3545" x="170.5835" y="157.3638">DRAFT</text><text fill="#000000" font-family="DejaVu Sans" font-size="13" lengthAdjust="spacing" textLength="27.8979" x="119.5598" y="182.4966">Draf</text><text fill="#000000" font-family="DejaVu Sans" font-size="13" lengthAdjust="spacing" textLength="135.4019" x="119.5598" y="197.6294">(bisa disunting guru)</text></g><g id="REVIEW"><rect fill="#FDF8FD" height="65.3984" rx="5" ry="5" style="stroke:#A64CA6;stroke-width:0.5;" width="159.0327" x="112.5598" y="282.2969"/><line style="stroke:#A64CA6;stroke-width:0.5;" x1="112.5598" x2="271.5925" y1="307.4297" y2="307.4297"/><text fill="#000000" font-family="DejaVu Sans" font-size="13" lengthAdjust="spacing" textLength="51.0415" x="166.5554" y="299.3638">REVIEW</text><text fill="#000000" font-family="DejaVu Sans" font-size="13" lengthAdjust="spacing" textLength="116.0859" x="117.5598" y="324.4966">Menunggu review</text><text fill="#000000" font-family="DejaVu Sans" font-size="13" lengthAdjust="spacing" textLength="139.0327" x="117.5598" y="339.6294">(terkunci untuk guru)</text></g><g id="PUBLISHED"><rect fill="#FDF8FD" height="65.3984" rx="5" ry="5" style="stroke:#A64CA6;stroke-width:0.5;" width="197.0234" x="93.5598" y="424.2969"/><line style="stroke:#A64CA6;stroke-width:0.5;" x1="93.5598" x2="290.5833" y1="449.4297" y2="449.4297"/><text fill="#000000" font-family="DejaVu Sans" font-size="13" lengthAdjust="spacing" textLength="73.6011" x="155.271" y="441.3638">PUBLISHED</text><text fill="#000000" font-family="DejaVu Sans" font-size="13" lengthAdjust="spacing" textLength="38.2446" x="98.5598" y="466.4966">Terbit</text><text fill="#000000" font-family="DejaVu Sans" font-size="13" lengthAdjust="spacing" textLength="177.0234" x="98.5598" y="481.6294">(tampil di portal orang tua)</text></g><ellipse cx="192.0598" cy="561.2969" fill="none" rx="11" ry="11" style="stroke:#222222;stroke-width:1;"/><ellipse cx="192.0598" cy="561.2969" fill="#222222" rx="6" ry="6" style="stroke:#222222;stroke-width:1;"/><!--link *start* to DRAFT--><g class="link" data-entity-1=".start." data-entity-2="DRAFT" data-source-line="5" data-uid="lnk4" id="link_.start._DRAFT"><path d="M192.0598,63.5169 C192.0598,79.7969 192.0598,108.3669 192.0598,134.0869" fill="none" id="*start*-to-DRAFT" style="stroke:#7A3F86;stroke-width:1;"/><polygon fill="#7A3F86" points="192.0598,140.0869,196.0598,131.0869,192.0598,135.0869,188.0598,131.0869,192.0598,140.0869" style="stroke:#7A3F86;stroke-width:1;"/><text fill="#000000" font-family="DejaVu Sans" font-size="13" lengthAdjust="spacing" textLength="165.001" x="193.0598" y="106.3638">guru menyimpan laporan</text></g><!--link DRAFT to DRAFT--><g class="link" data-entity-1="DRAFT" data-entity-2="DRAFT" data-source-line="10" data-uid="lnk5" id="link_DRAFT_DRAFT"><path d="M269.6198,159.8169 C289.5598,160.6469 304.5598,164.9669 304.5598,172.7969 C304.5598,180.6269 295.5546,184.6973 275.6146,185.5273" fill="none" id="DRAFT-to-DRAFT" style="stroke:#7A3F86;stroke-width:1;"/><polygon fill="#7A3F86" points="269.6198,185.7769,278.7784,189.3991,274.6155,185.5689,278.4457,181.406,269.6198,185.7769" style="stroke:#7A3F86;stroke-width:1;"/><text fill="#000000" font-family="DejaVu Sans" font-size="13" lengthAdjust="spacing" textLength="208.2095" x="310.5598" y="177.3638">guru menyunting &amp; menyimpan</text></g><!--link DRAFT to REVIEW--><g class="link" data-entity-1="DRAFT" data-entity-2="REVIEW" data-source-line="11" data-uid="lnk7" id="link_DRAFT_REVIEW"><path d="M192.0598,205.5669 C192.0598,228.4769 192.0598,253.2669 192.0598,276.1569" fill="none" id="DRAFT-to-REVIEW" style="stroke:#7A3F86;stroke-width:1;"/><polygon fill="#7A3F86" points="192.0598,282.1569,196.0598,273.1569,192.0598,277.1569,188.0598,273.1569,192.0598,282.1569" style="stroke:#7A3F86;stroke-width:1;"/><text fill="#000000" font-family="DejaVu Sans" font-size="13" lengthAdjust="spacing" textLength="168.8096" x="193.0598" y="248.3638">guru "Kirim untuk review"</text></g><!--link REVIEW to PUBLISHED--><g class="link" data-entity-1="REVIEW" data-entity-2="PUBLISHED" data-source-line="12" data-uid="lnk9" id="link_REVIEW_PUBLISHED"><path d="M192.0598,347.5669 C192.0598,370.4769 192.0598,395.2669 192.0598,418.1569" fill="none" id="REVIEW-to-PUBLISHED" style="stroke:#7A3F86;stroke-width:1;"/><polygon fill="#7A3F86" points="192.0598,424.1569,196.0598,415.1569,192.0598,419.1569,188.0598,415.1569,192.0598,424.1569" style="stroke:#7A3F86;stroke-width:1;"/><text fill="#000000" font-family="DejaVu Sans" font-size="13" lengthAdjust="spacing" textLength="166.7847" x="193.0598" y="390.3638">admin/staf "Publikasikan"</text></g><!--link PUBLISHED to *end*--><g class="link" data-entity-1="PUBLISHED" data-entity-2=".end." data-source-line="13" data-uid="lnk11" id="link_PUBLISHED_.end."><path d="M192.0598,489.3869 C192.0598,510.0969 192.0598,529.8469 192.0598,543.9169" fill="none" id="PUBLISHED-to-*end*" style="stroke:#7A3F86;stroke-width:1;"/><polygon fill="#7A3F86" points="192.0598,549.9169,196.0598,540.9169,192.0598,544.9169,188.0598,540.9169,192.0598,549.9169" style="stroke:#7A3F86;stroke-width:1;"/></g><!--SRC=[RP2nJiCm48RtFCMH0RL8BJi34YX5L1GfQWiCWAfBurgds4Va-43TU0YUa2VXqgIGWS63pz_l_zET46-Tb0Os5lSu9V4kYHITWLN4Q20Zj04zV7z-mGBhju0CkGcLyGMorSl8TTDDFPXE6mrBCqwIvxDNc4mk8LjUtQpX0gm40MzuJxxMT1zEZizPmDqBZmfg44fgX2EnFOJ6oNBsE9yzANHlMDXQWM3UoNme7xLRU4kW0QbwFd-uNinNjxDC8siJ2eejYRucft-35aTqqDPRY88gsrdygzkRdFwv3-XVimEUtb4WtwjqYkbHlgM7NbXwudFTrWxIN0f75JPwE1tOjnbTumy0]--></g></svg>