<svg xmlns="http://www.w3.org/2000/svg" xmlns:xlink="http://www.w3.org/1999/xlink" contentStyleType="text/css" data-diagram-type="DESCRIPTION" height="1793px" preserveAspectRatio="none" style="width:838px;height:1793px;background:#FFFFFF;" version="1.1" viewBox="0 0 838 1793" width="838px" zoomAndPan="magnify"><title>Use Case Diagram &#8212; Sistem Informasi TK Orchid</title><defs/><g><g class="title" data-source-line="4"><text fill="#000000" font-family="DejaVu Sans" font-size="14" font-weight="bold" lengthAdjust="spacing" textLength="382.9287" x="220.5356" y="22.9951">Use Case Diagram &#8212; Sistem Informasi TK Orchid</text></g><!--cluster Sistem Informasi TK Orchid--><g class="cluster" data-entity="Sistem Informasi TK Orchid" data-source-line="13" data-uid="ent0008" id="cluster_Sistem Informasi TK Orchid"><rect fill="#FFFFFF" height="1673" rx="5" ry="5" style="stroke:#A64CA6;stroke-width:1;" width="683" x="149" y="114.7969"/><text fill="#000000" font-family="DejaVu Sans" font-size="13" font-weight="bold" lengthAdjust="spacing" textLength="200.4399" x="390.28" y="128.8638">Sistem Informasi TK Orchid</text></g><!--entity UC01--><g class="entity" data-entity="UC01" data-source-line="14" data-uid="ent0009" id="entity_UC01"><ellipse cx="324.3877" cy="1048.6744" fill="#FDF8FD" rx="89.8877" ry="20.3775" style="stroke:#A64CA6;stroke-width:0.5;"/><text fill="#000000" font-family="DejaVu Sans" font-size="13" lengthAdjust="spacing" textLength="156.438" x="246.1687" y="1052.7408">Melihat website sekolah</text></g><!--entity UC02--><g class="entity" data-entity="UC02" data-source-line="15" data-uid="ent0010" id="entity_UC02"><ellipse cx="324.6369" cy="900.0242" fill="#FDF8FD" rx="86.6369" ry="19.7274" style="stroke:#A64CA6;stroke-width:0.5;"/><text fill="#000000" font-family="DejaVu Sans" font-size="13" lengthAdjust="spacing" textLength="149.1826" x="250.0456" y="904.0907">Mendaftar PPDB online</text></g><!--entity UC03--><g class="entity" data-entity="UC03" data-source-line="16" data-uid="ent0011" id="entity_UC03"><ellipse cx="324.4604" cy="1355.9974" fill="#FDF8FD" rx="27.9604" ry="13.7005" style="stroke:#A64CA6;stroke-width:0.5;"/><text fill="#000000" font-family="DejaVu Sans" font-size="13" lengthAdjust="spacing" textLength="35.2993" x="306.8107" y="1360.0638">Login</text></g><!--entity UC04--><g class="entity" data-entity="UC04" data-source-line="17" data-uid="ent0012" id="entity_UC04"><ellipse cx="711.7244" cy="1355.6418" fill="#FDF8FD" rx="104.7244" ry="23.3449" style="stroke:#A64CA6;stroke-width:0.5;"/><text fill="#000000" font-family="DejaVu Sans" font-size="13" lengthAdjust="spacing" textLength="188.8555" x="617.2967" y="1359.7082">Lupa &amp; atur ulang kata sandi</text></g><!--entity UC10--><g class="entity" data-entity="UC10" data-source-line="19" data-uid="ent0013" id="entity_UC10"><ellipse cx="324.5077" cy="1656.6984" fill="#FDF8FD" rx="90.0077" ry="20.4015" style="stroke:#A64CA6;stroke-width:0.5;"/><text fill="#000000" font-family="DejaVu Sans" font-size="13" lengthAdjust="spacing" textLength="156.7046" x="246.1554" y="1660.7648">Melihat dashboard anak</text></g><!--entity UC11--><g class="entity" data-entity="UC11" data-source-line="20" data-uid="ent0014" id="entity_UC11"><ellipse cx="324.7227" cy="1741.8414" fill="#FDF8FD" rx="135.7227" ry="29.5445" style="stroke:#A64CA6;stroke-width:0.5;"/><text fill="#000000" font-family="DejaVu Sans" font-size="13" lengthAdjust="spacing" textLength="254.4331" x="197.5061" y="1745.9078">Melihat tagihan &amp; riwayat pembayaran</text></g><!--entity UC12--><g class="entity" data-entity="UC12" data-source-line="21" data-uid="ent0015" id="entity_UC12"><ellipse cx="324.2574" cy="1423.9483" fill="#FDF8FD" rx="83.7574" ry="19.1515" style="stroke:#A64CA6;stroke-width:0.5;"/><text fill="#000000" font-family="DejaVu Sans" font-size="13" lengthAdjust="spacing" textLength="142.6953" x="252.9097" y="1428.0148">Melihat presensi anak</text></g><!--entity UC13--><g class="entity" data-entity="UC13" data-source-line="22" data-uid="ent0016" id="entity_UC13"><ellipse cx="324.5545" cy="1501.7078" fill="#FDF8FD" rx="105.0545" ry="23.4109" style="stroke:#A64CA6;stroke-width:0.5;"/><text fill="#000000" font-family="DejaVu Sans" font-size="13" lengthAdjust="spacing" textLength="189.5664" x="229.7713" y="1505.7742">Melihat rapor perkembangan</text></g><!--entity UC14--><g class="entity" data-entity="UC14" data-source-line="23" data-uid="ent0017" id="entity_UC14"><ellipse cx="324.6342" cy="1580.8237" fill="#FDF8FD" rx="90.6342" ry="20.5268" style="stroke:#A64CA6;stroke-width:0.5;"/><text fill="#000000" font-family="DejaVu Sans" font-size="13" lengthAdjust="spacing" textLength="158.0947" x="245.5868" y="1584.8901">Membaca pengumuman</text></g><!--entity UC20--><g class="entity" data-entity="UC20" data-source-line="25" data-uid="ent0018" id="entity_UC20"><ellipse cx="324.5913" cy="973.8151" fill="#FDF8FD" rx="85.5913" ry="19.5183" style="stroke:#A64CA6;stroke-width:0.5;"/><text fill="#000000" font-family="DejaVu Sans" font-size="13" lengthAdjust="spacing" textLength="146.834" x="251.1743" y="977.8815">Mengisi presensi kelas</text></g><!--entity UC21--><g class="entity" data-entity="UC21" data-source-line="26" data-uid="ent0019" id="entity_UC21"><ellipse cx="324.41" cy="1122.5789" fill="#FDF8FD" rx="79.41" ry="18.282" style="stroke:#A64CA6;stroke-width:0.5;"/><text fill="#000000" font-family="DejaVu Sans" font-size="13" lengthAdjust="spacing" textLength="132.7739" x="258.0231" y="1126.6453">Menginput penilaian</text></g><!--entity UC22--><g class="entity" data-entity="UC22" data-source-line="27" data-uid="ent0020" id="entity_UC22"><ellipse cx="324.7131" cy="1202.8395" fill="#FDF8FD" rx="120.7131" ry="26.5426" style="stroke:#A64CA6;stroke-width:0.5;"/><text fill="#000000" font-family="DejaVu Sans" font-size="13" lengthAdjust="spacing" textLength="222.936" x="213.2451" y="1206.9059">Menyusun laporan perkembangan</text></g><!--entity UC23--><g class="entity" data-entity="UC23" data-source-line="28" data-uid="ent0021" id="entity_UC23"><ellipse cx="324.5709" cy="1285.8111" fill="#FDF8FD" rx="95.5709" ry="21.5142" style="stroke:#A64CA6;stroke-width:0.5;"/><text fill="#000000" font-family="DejaVu Sans" font-size="13" lengthAdjust="spacing" textLength="168.9746" x="240.0836" y="1289.8775">Melihat jadwal &amp; kegiatan</text></g><!--entity UC30--><g class="entity" data-entity="UC30" data-source-line="30" data-uid="ent0022" id="entity_UC30"><ellipse cx="324.501" cy="501.9971" fill="#FDF8FD" rx="101.501" ry="22.7002" style="stroke:#A64CA6;stroke-width:0.5;"/><text fill="#000000" font-family="DejaVu Sans" font-size="13" lengthAdjust="spacing" textLength="181.8921" x="233.5549" y="506.0635">Meninjau pendaftaran PPDB</text></g><!--entity UC31--><g class="entity" data-entity="UC31" data-source-line="31" data-uid="ent0023" id="entity_UC31"><ellipse cx="324.4304" cy="579.683" fill="#FDF8FD" rx="87.4304" ry="19.8861" style="stroke:#A64CA6;stroke-width:0.5;"/><text fill="#000000" font-family="DejaVu Sans" font-size="13" lengthAdjust="spacing" textLength="150.96" x="248.9504" y="583.7494">Mengelola siswa &amp; wali</text></g><!--entity UC32--><g class="entity" data-entity="UC32" data-source-line="32" data-uid="ent0024" id="entity_UC32"><ellipse cx="324.3535" cy="659.7676" fill="#FDF8FD" rx="112.8535" ry="24.9707" style="stroke:#A64CA6;stroke-width:0.5;"/><text fill="#000000" font-family="DejaVu Sans" font-size="13" lengthAdjust="spacing" textLength="206.2671" x="221.22" y="663.834">Mengelola tahun ajaran &amp; kelas</text></g><!--entity UC33--><g class="entity" data-entity="UC33" data-source-line="33" data-uid="ent0025" id="entity_UC33"><ellipse cx="324.2687" cy="747.7506" fill="#FDF8FD" rx="127.7687" ry="27.9537" style="stroke:#A64CA6;stroke-width:0.5;"/><text fill="#000000" font-family="DejaVu Sans" font-size="13" lengthAdjust="spacing" textLength="237.7896" x="205.3739" y="751.817">Menerbitkan laporan perkembangan</text></g><!--entity UC34--><g class="entity" data-entity="UC34" data-source-line="34" data-uid="ent0026" id="entity_UC34"><ellipse cx="324.5801" cy="828.0129" fill="#FDF8FD" rx="74.0801" ry="17.216" style="stroke:#A64CA6;stroke-width:0.5;"/><text fill="#000000" font-family="DejaVu Sans" font-size="13" lengthAdjust="spacing" textLength="120.3516" x="264.4044" y="832.0793">Mengelola tagihan</text></g><!--entity UC35--><g class="entity" data-entity="UC35" data-source-line="35" data-uid="ent0027" id="entity_UC35"><ellipse cx="324.2549" cy="272.8479" fill="#FDF8FD" rx="85.7549" ry="19.551" style="stroke:#A64CA6;stroke-width:0.5;"/><text fill="#000000" font-family="DejaVu Sans" font-size="13" lengthAdjust="spacing" textLength="147.2021" x="250.6539" y="276.9143">Mencatat pembayaran</text></g><!--entity UC36--><g class="entity" data-entity="UC36" data-source-line="36" data-uid="ent0028" id="entity_UC36"><ellipse cx="324.6505" cy="346.827" fill="#FDF8FD" rx="85.6505" ry="19.5301" style="stroke:#A64CA6;stroke-width:0.5;"/><text fill="#000000" font-family="DejaVu Sans" font-size="13" lengthAdjust="spacing" textLength="146.9673" x="251.1669" y="350.8934">Mencatat pengeluaran</text></g><!--entity UC37--><g class="entity" data-entity="UC37" data-source-line="37" data-uid="ent0029" id="entity_UC37"><ellipse cx="324.2811" cy="422.9531" fill="#FDF8FD" rx="96.2811" ry="21.6562" style="stroke:#A64CA6;stroke-width:0.5;"/><text fill="#000000" font-family="DejaVu Sans" font-size="13" lengthAdjust="spacing" textLength="170.5298" x="239.0162" y="427.0195">Mengelola konten website</text></g><!--entity UC38--><g class="entity" data-entity="UC38" data-source-line="38" data-uid="ent0030" id="entity_UC38"><ellipse cx="324.2749" cy="183.5519" fill="#FDF8FD" rx="159.2749" ry="34.255" style="stroke:#A64CA6;stroke-width:0.5;"/><text fill="#000000" font-family="DejaVu Sans" font-size="13" lengthAdjust="spacing" textLength="303.2529" x="172.6484" y="187.6183">Membatalkan (void) pembayaran/pengeluaran</text></g><!--entity Pengunjung--><g class="entity" data-entity="Pengunjung" data-source-line="6" data-uid="ent0002" id="entity_Pengunjung"><ellipse cx="57.5747" cy="947.7969" fill="#F3E3F3" rx="8" ry="8" style="stroke:#7A3F86;stroke-width:0.5;"/><path d="M57.5747,955.7969 L57.5747,982.7969 M44.5747,963.7969 L70.5747,963.7969 M57.5747,982.7969 L44.5747,997.7969 M57.5747,982.7969 L70.5747,997.7969" fill="none" style="stroke:#7A3F86;stroke-width:0.5;"/><text fill="#000000" font-family="DejaVu Sans" font-size="13" lengthAdjust="spacing" textLength="77.1494" x="19" y="1011.3638">Pengunjung</text></g><!--entity Ortu--><g class="entity" data-entity="Ortu" data-source-line="7" data-uid="ent0003" id="entity_Ortu"><ellipse cx="57.6567" cy="1530.7969" fill="#F3E3F3" rx="8" ry="8" style="stroke:#7A3F86;stroke-width:0.5;"/><path d="M57.6567,1538.7969 L57.6567,1565.7969 M44.6567,1546.7969 L70.6567,1546.7969 M57.6567,1565.7969 L44.6567,1580.7969 M57.6567,1565.7969 L70.6567,1580.7969" fill="none" style="stroke:#7A3F86;stroke-width:0.5;"/><text fill="#000000" font-family="DejaVu Sans" font-size="13" lengthAdjust="spacing" textLength="68.3135" x="23.5" y="1594.3638">Orang Tua</text></g><!--entity Guru--><g class="entity" data-entity="Guru" data-source-line="8" data-uid="ent0004" id="entity_Guru"><ellipse cx="57.4485" cy="1173.7969" fill="#F3E3F3" rx="8" ry="8" style="stroke:#7A3F86;stroke-width:0.5;"/><path d="M57.4485,1181.7969 L57.4485,1208.7969 M44.4485,1189.7969 L70.4485,1189.7969 M57.4485,1208.7969 L44.4485,1223.7969 M57.4485,1208.7969 L70.4485,1223.7969" fill="none" style="stroke:#7A3F86;stroke-width:0.5;"/><text fill="#000000" font-family="DejaVu Sans" font-size="13" lengthAdjust="spacing" textLength="31.897" x="41.5" y="1237.3638">Guru</text></g><!--entity Staf--><g class="entity" data-entity="Staf" data-source-line="9" data-uid="ent0005" id="entity_Staf"><ellipse cx="57.7402" cy="590.7969" fill="#F3E3F3" rx="8" ry="8" style="stroke:#7A3F86;stroke-width:0.5;"/><path d="M57.7402,598.7969 L57.7402,625.7969 M44.7402,606.7969 L70.7402,606.7969 M57.7402,625.7969 L44.7402,640.7969 M57.7402,625.7969 L70.7402,640.7969" fill="none" style="stroke:#7A3F86;stroke-width:0.5;"/><text fill="#000000" font-family="DejaVu Sans" font-size="13" lengthAdjust="spacing" textLength="47.4805" x="34" y="654.3638">Staf TU</text></g><!--entity Admin--><g class="entity" data-entity="Admin" data-source-line="10" data-uid="ent0006" id="entity_Admin"><ellipse cx="57.4241" cy="404.7969" fill="#F3E3F3" rx="8" ry="8" style="stroke:#7A3F86;stroke-width:0.5;"/><path d="M57.4241,412.7969 L57.4241,439.7969 M44.4241,420.7969 L70.4241,420.7969 M57.4241,439.7969 L44.4241,454.7969 M57.4241,439.7969 L70.4241,454.7969" fill="none" style="stroke:#7A3F86;stroke-width:0.5;"/><text fill="#000000" font-family="DejaVu Sans" font-size="13" lengthAdjust="spacing" textLength="88.8481" x="13" y="468.3638">Administrator</text></g><g class="entity" data-entity="GMN57" data-source-line="72" data-uid="ent0058" id="entity_GMN57"><path d="M234.5,48.2969 L234.5,93.6953 A5,5 0 0 0 239.5,98.6953 L320.5,98.6953 L324.5,148.9269 L328.5,98.6953 L409.8643,98.6953 A5,5 0 0 0 414.8643,93.6953 L414.8643,53.2969 L404.8643,43.2969 L239.5,43.2969 A5,5 0 0 0 234.5,48.2969" fill="#FFFBEA" style="stroke:#E9A24B;stroke-width:0.5;"/><path d="M404.8643,43.2969 L404.8643,50.7969 A2.5,2.5 0 0 0 407.3643,53.2969 L414.8643,53.2969 L404.8643,43.2969" fill="#FFFBEA" style="stroke:#E9A24B;stroke-width:0.5;"/><text fill="#000000" font-family="DejaVu Sans" font-size="13" lengthAdjust="spacing" textLength="138.7534" x="240.5" y="60.3638">Hanya Administrator.</text><text fill="#000000" font-family="DejaVu Sans" font-size="13" lengthAdjust="spacing" textLength="141.7051" x="240.5" y="75.4966">Status tagihan terkait</text><text fill="#000000" font-family="DejaVu Sans" font-size="13" lengthAdjust="spacing" textLength="159.3643" x="240.5" y="90.6294">dihitung ulang otomatis.</text></g><!--link Admin to Staf--><g class="link" data-entity-1="Admin" data-entity-2="Staf" data-source-line="11" data-uid="lnk7" id="link_Admin_Staf"><path d="M57.5,471.3769 C57.5,503.6369 57.5,531.8869 57.5,564.1569" fill="none" id="Admin-to-Staf" style="stroke:#7A3F86;stroke-width:1;"/><polygon fill="none" points="57.5,582.1569,63.5,564.1569,51.5,564.1569,57.5,582.1569" style="stroke:#7A3F86;stroke-width:1;"/><text fill="#000000" font-family="DejaVu Sans" font-size="13" lengthAdjust="spacing" textLength="78.146" x="7" y="531.3638">generalisasi</text></g><!--link Pengunjung to UC01--><g class="link" data-entity-1="Pengunjung" data-entity-2="UC01" data-source-line="41" data-uid="lnk31" id="link_Pengunjung_UC01"><path d="M96.16,994.0469 C110.05,999.9369 126.04,1006.1969 141,1010.7969 C176.58,1021.7269 211.1235,1029.3975 244.8735,1035.7475" fill="none" id="Pengunjung-to-UC01" style="stroke:#7A3F86;stroke-width:1;"/><polygon fill="#7A3F86" points="250.77,1036.8569,242.6648,1031.2617,245.8562,1035.9324,241.1856,1039.1238,250.77,1036.8569" style="stroke:#7A3F86;stroke-width:1;"/></g><!--link Pengunjung to UC02--><g class="link" data-entity-1="Pengunjung" data-entity-2="UC02" data-source-line="42" data-uid="lnk32" id="link_Pengunjung_UC02"><path d="M96.27,956.0169 C110.03,949.1069 125.92,941.8869 141,936.7969 C176.38,924.8469 211.0703,917.1838 244.9803,911.2338" fill="none" id="Pengunjung-to-UC02" style="stroke:#7A3F86;stroke-width:1;"/><polygon fill="#7A3F86" points="250.89,910.1969,241.3341,907.8125,245.9652,911.061,242.7167,915.6921,250.89,910.1969" style="stroke:#7A3F86;stroke-width:1;"/></g><!--link Ortu to UC03--><g class="link" data-entity-1="Ortu" data-entity-2="UC03" data-source-line="43" data-uid="lnk33" id="link_Ortu_UC03"><path d="M65.85,1521.9369 C75.72,1481.8169 97.33,1419.7969 141,1386.7969 C187.16,1351.9269 252.6415,1350.3954 291.0115,1352.7754" fill="none" id="Ortu-to-UC03" style="stroke:#7A3F86;stroke-width:1;"/><polygon fill="#7A3F86" points="297,1353.1469,288.2649,1348.5974,292.0096,1352.8373,287.7696,1356.582,297,1353.1469" style="stroke:#7A3F86;stroke-width:1;"/></g><!--link Guru to UC03--><g class="link" data-entity-1="Guru" data-entity-2="UC03" data-source-line="44" data-uid="lnk34" id="link_Guru_UC03"><path d="M73.58,1239.5269 C87.04,1267.4869 109.51,1304.5169 141,1324.7969 C189.23,1355.8569 252.9327,1358.8578 290.7127,1357.7178" fill="none" id="Guru-to-UC03" style="stroke:#7A3F86;stroke-width:1;"/><polygon fill="#7A3F86" points="296.71,1357.5369,287.5935,1353.8101,291.7123,1357.6877,287.8347,1361.8065,296.71,1357.5369" style="stroke:#7A3F86;stroke-width:1;"/></g><!--link Staf to UC03--><g class="link" data-entity-1="Staf" data-entity-2="UC03" data-source-line="45" data-uid="lnk35" id="link_Staf_UC03"><path d="M64.49,657.3869 C73.45,714.4369 90.51,826.3469 102,921.7969 C104.69,944.1269 125.68,1308.3269 141,1324.7969 C181.29,1368.0869 251.9876,1365.9112 291.9176,1360.8512" fill="none" id="Staf-to-UC03" style="stroke:#7A3F86;stroke-width:1;"/><polygon fill="#7A3F86" points="297.87,1360.0969,288.4385,1357.2601,292.9097,1360.7255,289.4443,1365.1966,297.87,1360.0969" style="stroke:#7A3F86;stroke-width:1;"/></g><!--reverse link UC03 to UC04--><g class="link" data-entity-1="UC03" data-entity-2="UC04" data-source-line="46" data-uid="lnk36" id="link_UC03_UC04"><path d="M358.57,1355.7969 C410.52,1355.7969 520.65,1355.7969 606.62,1355.7969" fill="none" id="UC03-backto-UC04" style="stroke:#7A3F86;stroke-width:1;stroke-dasharray:7,7;"/><polygon fill="#7A3F86" points="352.57,1355.7969,361.57,1359.7969,357.57,1355.7969,361.57,1351.7969,352.57,1355.7969" style="stroke:#7A3F86;stroke-width:1;"/><text fill="#000000" font-family="DejaVu Sans" font-size="13" lengthAdjust="spacing" textLength="61.1851" x="515" y="1351.8638">&#171;extend&#187;</text></g><!--link Ortu to UC10--><g class="link" data-entity-1="Ortu" data-entity-2="UC10" data-source-line="48" data-uid="lnk37" id="link_Ortu_UC10"><path d="M91.87,1588.4969 C106.18,1599.4669 123.58,1611.1669 141,1618.7969 C173.31,1632.9569 205.2771,1640.9281 238.1271,1646.5881" fill="none" id="Ortu-to-UC10" style="stroke:#7A3F86;stroke-width:1;"/><polygon fill="#7A3F86" points="244.04,1647.6069,235.8499,1642.1368,239.1126,1646.7579,234.4915,1650.0206,244.04,1647.6069" style="stroke:#7A3F86;stroke-width:1;"/></g><!--link Ortu to UC11--><g class="link" data-entity-1="Ortu" data-entity-2="UC11" data-source-line="49" data-uid="lnk38" id="link_Ortu_UC11"><path d="M72.19,1597.4569 C85.25,1628.1469 107.88,1670.2869 141,1694.7969 C160.72,1709.3969 178.7898,1717.7976 202.6298,1724.7476" fill="none" id="Ortu-to-UC11" style="stroke:#7A3F86;stroke-width:1;"/><polygon fill="#7A3F86" points="208.39,1726.4269,200.8692,1720.0678,203.5898,1725.0275,198.6302,1727.7481,208.39,1726.4269" style="stroke:#7A3F86;stroke-width:1;"/></g><!--link Ortu to UC12--><g class="link" data-entity-1="Ortu" data-entity-2="UC12" data-source-line="50" data-uid="lnk39" id="link_Ortu_UC12"><path d="M80.63,1522.2869 C95.14,1500.9969 116.02,1475.6969 141,1460.7969 C171.54,1442.5769 203.5908,1434.0286 236.9908,1429.2386" fill="none" id="Ortu-to-UC12" style="stroke:#7A3F86;stroke-width:1;"/><polygon fill="#7A3F86" points="242.93,1428.3869,233.4533,1425.705,237.9806,1429.0967,234.589,1433.624,242.93,1428.3869" style="stroke:#7A3F86;stroke-width:1;"/></g><!--link Ortu to UC13--><g class="link" data-entity-1="Ortu" data-entity-2="UC13" data-source-line="51" data-uid="lnk40" id="link_Ortu_UC13"><path d="M91.77,1551.9769 C104.36,1549.0569 118.83,1545.7269 132,1542.7969 C170,1534.3369 206.4506,1526.4819 241.6206,1519.0219" fill="none" id="Ortu-to-UC13" style="stroke:#7A3F86;stroke-width:1;"/><polygon fill="#7A3F86" points="247.49,1517.7769,237.8559,1515.7314,242.5988,1518.8144,239.5159,1523.5573,247.49,1517.7769" style="stroke:#7A3F86;stroke-width:1;"/></g><!--link Ortu to UC14--><g class="link" data-entity-1="Ortu" data-entity-2="UC14" data-source-line="52" data-uid="lnk41" id="link_Ortu_UC14"><path d="M91.53,1562.4169 C128.16,1565.3169 182.7087,1569.6435 232.7487,1573.6035" fill="none" id="Ortu-to-UC14" style="stroke:#7A3F86;stroke-width:1;"/><polygon fill="#7A3F86" points="238.73,1574.0769,230.0736,1569.3793,233.7456,1573.6824,229.4425,1577.3544,238.73,1574.0769" style="stroke:#7A3F86;stroke-width:1;"/></g><!--link Guru to UC20--><g class="link" data-entity-1="Guru" data-entity-2="UC20" data-source-line="54" data-uid="lnk42" id="link_Guru_UC20"><path d="M64.05,1165.1369 C72.58,1121.1769 93.28,1049.5869 141,1010.7969 C168.22,988.6769 199.1966,979.4028 232.7166,975.2028" fill="none" id="Guru-to-UC20" style="stroke:#7A3F86;stroke-width:1;"/><polygon fill="#7A3F86" points="238.67,974.4569,229.2425,971.6068,233.7088,975.0785,230.2371,979.5448,238.67,974.4569" style="stroke:#7A3F86;stroke-width:1;"/></g><!--link Guru to UC21--><g class="link" data-entity-1="Guru" data-entity-2="UC21" data-source-line="55" data-uid="lnk43" id="link_Guru_UC21"><path d="M73.68,1192.9269 C89.77,1182.8969 116.23,1167.6269 141,1158.7969 C177.35,1145.8369 213.6069,1138.0942 248.2569,1132.4942" fill="none" id="Guru-to-UC21" style="stroke:#7A3F86;stroke-width:1;"/><polygon fill="#7A3F86" points="254.18,1131.5369,244.6571,1129.024,249.244,1132.3346,245.9335,1136.9216,254.18,1131.5369" style="stroke:#7A3F86;stroke-width:1;"/></g><!--link Guru to UC22--><g class="link" data-entity-1="Guru" data-entity-2="UC22" data-source-line="56" data-uid="lnk44" id="link_Guru_UC22"><path d="M73.51,1202.7969 C98.91,1202.7969 146.62,1202.7969 197.77,1202.7969" fill="none" id="Guru-to-UC22" style="stroke:#7A3F86;stroke-width:1;"/><polygon fill="#7A3F86" points="203.77,1202.7969,194.77,1198.7969,198.77,1202.7969,194.77,1206.7969,203.77,1202.7969" style="stroke:#7A3F86;stroke-width:1;"/></g><!--link Guru to UC23--><g class="link" data-entity-1="Guru" data-entity-2="UC23" data-source-line="57" data-uid="lnk45" id="link_Guru_UC23"><path d="M73.71,1212.5869 C89.82,1222.5469 116.3,1237.7769 141,1246.7969 C174.02,1258.8569 205.9349,1266.5897 238.5449,1272.7697" fill="none" id="Guru-to-UC23" style="stroke:#7A3F86;stroke-width:1;"/><polygon fill="#7A3F86" points="244.44,1273.8869,236.3422,1268.281,239.5274,1272.9559,234.8526,1276.1411,244.44,1273.8869" style="stroke:#7A3F86;stroke-width:1;"/></g><!--link Staf to UC30--><g class="link" data-entity-1="Staf" data-entity-2="UC30" data-source-line="59" data-uid="lnk46" id="link_Staf_UC30"><path d="M81.29,591.5669 C96.46,574.6269 117.83,554.0569 141,541.7969 C169.1,526.9369 196.5385,518.723 226.9785,512.853" fill="none" id="Staf-to-UC30" style="stroke:#7A3F86;stroke-width:1;"/><polygon fill="#7A3F86" points="232.87,511.7169,223.2754,509.4934,227.9605,512.6636,224.7902,517.3487,232.87,511.7169" style="stroke:#7A3F86;stroke-width:1;"/></g><!--link Staf to UC31--><g class="link" data-entity-1="Staf" data-entity-2="UC31" data-source-line="60" data-uid="lnk47" id="link_Staf_UC31"><path d="M81.09,616.3869 C118.33,610.7669 188.2072,600.2223 245.1872,591.6223" fill="none" id="Staf-to-UC31" style="stroke:#7A3F86;stroke-width:1;"/><polygon fill="#7A3F86" points="251.12,590.7269,241.6238,588.1148,246.176,591.4731,242.8178,596.0252,251.12,590.7269" style="stroke:#7A3F86;stroke-width:1;"/></g><!--link Staf to UC32--><g class="link" data-entity-1="Staf" data-entity-2="UC32" data-source-line="61" data-uid="lnk48" id="link_Staf_UC32"><path d="M81.09,623.2069 C114.01,628.1769 171.1372,636.8017 224.6872,644.8817" fill="none" id="Staf-to-UC32" style="stroke:#7A3F86;stroke-width:1;"/><polygon fill="#7A3F86" points="230.62,645.7769,222.3175,640.4789,225.676,645.0309,221.1239,648.3893,230.62,645.7769" style="stroke:#7A3F86;stroke-width:1;"/></g><!--link Staf to UC20--><g class="link" data-entity-1="Staf" data-entity-2="UC20" data-source-line="62" data-uid="lnk49" id="link_Staf_UC20"><path d="M65.95,657.3569 C82.1,737.0369 120.48,917.3669 141,936.7969 C167.06,961.4669 198.8638,971.0709 233.2938,974.7409" fill="none" id="Staf-to-UC20" style="stroke:#7A3F86;stroke-width:1;"/><polygon fill="#7A3F86" points="239.26,975.3769,230.7347,970.4455,234.2882,974.8469,229.8867,978.4004,239.26,975.3769" style="stroke:#7A3F86;stroke-width:1;"/></g><!--link Staf to UC21--><g class="link" data-entity-1="Staf" data-entity-2="UC21" data-source-line="63" data-uid="lnk50" id="link_Staf_UC21"><path d="M63.95,657.3469 C79.83,765.5469 125.83,1071.3269 141,1086.7969 C168.02,1114.3569 203.5938,1123.6201 240.2338,1126.1101" fill="none" id="Staf-to-UC21" style="stroke:#7A3F86;stroke-width:1;"/><polygon fill="#7A3F86" points="246.22,1126.5169,237.5119,1121.9159,241.2315,1126.1779,236.9695,1129.8975,246.22,1126.5169" style="stroke:#7A3F86;stroke-width:1;"/></g><!--link Staf to UC33--><g class="link" data-entity-1="Staf" data-entity-2="UC33" data-source-line="64" data-uid="lnk51" id="link_Staf_UC33"><path d="M81.14,649.2369 C96.27,666.9569 117.62,688.5769 141,701.7969 C164.89,715.3069 186.9356,723.426 213.5956,730.216" fill="none" id="Staf-to-UC33" style="stroke:#7A3F86;stroke-width:1;"/><polygon fill="#7A3F86" points="219.41,731.6969,211.6757,725.5993,214.5647,730.4628,209.7012,733.3518,219.41,731.6969" style="stroke:#7A3F86;stroke-width:1;"/></g><!--link Staf to UC34--><g class="link" data-entity-1="Staf" data-entity-2="UC34" data-source-line="65" data-uid="lnk52" id="link_Staf_UC34"><path d="M65.98,657.4769 C75.97,697.4469 97.68,759.3369 141,792.7969 C171.89,816.6569 208.3802,825.2945 244.5702,828.2745" fill="none" id="Staf-to-UC34" style="stroke:#7A3F86;stroke-width:1;"/><polygon fill="#7A3F86" points="250.55,828.7669,241.9086,824.0418,245.5669,828.3565,241.2521,832.0148,250.55,828.7669" style="stroke:#7A3F86;stroke-width:1;"/></g><!--link Staf to UC35--><g class="link" data-entity-1="Staf" data-entity-2="UC35" data-source-line="66" data-uid="lnk53" id="link_Staf_UC35"><path d="M72.13,582.2869 C81.3,556.2669 93.26,520.6869 102,488.7969 C123.53,410.2769 83.01,366.9569 141,309.7969 C166.56,284.6069 198.2922,274.9275 232.8122,271.3375" fill="none" id="Staf-to-UC35" style="stroke:#7A3F86;stroke-width:1;"/><polygon fill="#7A3F86" points="238.78,270.7169,229.4145,267.6693,233.8068,271.2341,230.242,275.6264,238.78,270.7169" style="stroke:#7A3F86;stroke-width:1;"/></g><!--link Staf to UC36--><g class="link" data-entity-1="Staf" data-entity-2="UC36" data-source-line="67" data-uid="lnk54" id="link_Staf_UC36"><path d="M71.09,582.2769 C93.21,516.5569 137.1,387.1969 141,383.7969 C167.68,360.5269 198.961,351.0967 232.851,347.1167" fill="none" id="Staf-to-UC36" style="stroke:#7A3F86;stroke-width:1;"/><polygon fill="#7A3F86" points="238.81,346.4169,229.4049,343.4939,233.8441,347.0001,230.338,351.4393,238.81,346.4169" style="stroke:#7A3F86;stroke-width:1;"/></g><!--link Staf to UC37--><g class="link" data-entity-1="Staf" data-entity-2="UC37" data-source-line="68" data-uid="lnk55" id="link_Staf_UC37"><path d="M68.08,582.1069 C79.35,545.6469 101.71,491.6669 141,461.7969 C166.28,442.5769 193.0271,433.3757 223.7271,428.0857" fill="none" id="Staf-to-UC37" style="stroke:#7A3F86;stroke-width:1;"/><polygon fill="#7A3F86" points="229.64,427.0669,220.0915,424.6533,224.7126,427.9159,221.4499,432.5371,229.64,427.0669" style="stroke:#7A3F86;stroke-width:1;"/></g><!--link Admin to UC38--><g class="link" data-entity-1="Admin" data-entity-2="UC38" data-source-line="69" data-uid="lnk56" id="link_Admin_UC38"><path d="M64.16,396.0169 C72.83,351.3769 93.69,277.8669 141,235.7969 C156.63,221.8969 170.1237,213.7979 190.0237,206.3179" fill="none" id="Admin-to-UC38" style="stroke:#7A3F86;stroke-width:1;"/><polygon fill="#7A3F86" points="195.64,204.2069,185.8081,203.6292,190.9597,205.9661,188.6229,211.1177,195.64,204.2069" style="stroke:#7A3F86;stroke-width:1;"/></g><!--SRC=[VLJRRjD047tVhnZoKC53GsFt9bH5WbO212YLsZwZIRnn9bxlHdiXL834H_25V0cpJfru4vSNssVcUEupBqZFL2WaV2tn4OSKQYMKd7lm1YoL2my5MJdpPBJmv9M41oVX6lbnGrXQhE7lxpzmHyxB6ZxgkR4rEeBxJp2nimKLGk3C6mk3MwdBe9T1bmD01plO4YOMTGdt0HlznFhGQju76nfX_6Y5TnxdSF_GoEDtAtzRrAGv78iC6sqZ4SqJZd-E6pQyWL9gQL6HutY5Y4coVqvmy7mo0_WX08AJirY0mHUfQ84UrdBgo4jmiZ8A5utJX-kJKShL1SuzMhYzlNa7HYlIicLcNUPdKv9kDNcY2Ik48q0VB0GLgrMXHt2e2sf_E1Lz4HRe5bE3jW3KM3rnHoTzL8yblpNxiRJccV2malMKFxWzxO-ZlXzNLZgfkLnT5raVq-AAExMIjegMTRapdATqriwGYJmgTQXtjFqaTKdiTnj09HMw9svsSa3Lgn2JqgIGjZQp_Muz1XSqg1WgLwCdsAmtjoKMQrHSlKgMnDtPilFzc4alCSGuDdF1Jk9aFD7pWx2buja2HsuTPu1zj2tFH_rKZmjE09UDwQEaAFbUwBm8K_8L_ZVVF7_EJpCmBUjqZpNZ8lJCK7xs32-Q3LtYUR_RocWlTRjxBVdYO80ygfZOos-6YbUTE5xtkBeKluJONIOuFXvl5lbGbebueLgKYtYQTgWvCLiK7t0r73RxoPVdwaf-vzYByLXqhV0-Tj4eGOa_tfCkudNekEU9xw9HWh84yKns8kMPww9HWh8koX9cbZAJx7aSkkWiGUS9kcXFz0PU2g4D7zMfyTxKOEOR8S07r8y8oPaVifXD-U2svylp02DvLXIq81yxjpcPXgsX9pSKt068Blu1]--></g></svg>